<svg width="20" height="20" viewBox="0 0 20 20" fill="none" xmlns="http://www.w3.org/2000/svg">
<mask id="mask0_4_707" style="mask-type:alpha" maskUnits="userSpaceOnUse" x="0" y="0" width="20" height="20">
<rect width="20" height="20" fill="#D9D9D9"/>
</mask>
<g mask="url(#mask0_4_707)">
<path d="M15.8334 6.66699C15.1389 6.66699 14.5486 6.42394 14.0625 5.93783C13.5764 5.45171 13.3334 4.86144 13.3334 4.16699C13.3334 3.47255 13.5764 2.88227 14.0625 2.39616C14.5486 1.91005 15.1389 1.66699 15.8334 1.66699C16.5278 1.66699 17.1181 1.91005 17.6042 2.39616C18.0903 2.88227 18.3334 3.47255 18.3334 4.16699C18.3334 4.86144 18.0903 5.45171 17.6042 5.93783C17.1181 6.42394 16.5278 6.66699 15.8334 6.66699ZM3.33335 16.667C2.87502 16.667 2.48266 16.5038 2.15627 16.1774C1.82988 15.851 1.66669 15.4587 1.66669 15.0003V5.00033C1.66669 4.54199 1.82988 4.14963 2.15627 3.82324C2.48266 3.49685 2.87502 3.33366 3.33335 3.33366H11.75C11.6945 3.61144 11.6667 3.88921 11.6667 4.16699C11.6667 4.44477 11.6945 4.72255 11.75 5.00033C11.8472 5.44477 12.007 5.85796 12.2292 6.23991C12.4514 6.62185 12.7222 6.95866 13.0417 7.25033L10 9.16699L3.33335 5.00033V6.66699L10 10.8337L14.3959 8.08366C14.632 8.16699 14.8681 8.22949 15.1042 8.27116C15.3403 8.31283 15.5834 8.33366 15.8334 8.33366C16.2778 8.33366 16.7153 8.26421 17.1459 8.12533C17.5764 7.98644 17.9722 7.7781 18.3334 7.50033V15.0003C18.3334 15.4587 18.1702 15.851 17.8438 16.1774C17.5174 16.5038 17.125 16.667 16.6667 16.667H3.33335Z" fill="#EEF4FF"/>
</g>
</svg>
