<svg width="69" height="68" viewBox="0 0 69 68" fill="none" xmlns="http://www.w3.org/2000/svg">
<g id="mark_email_unread">
<mask id="mask0_4_2541" style="mask-type:alpha" maskUnits="userSpaceOnUse" x="0" y="0" width="69" height="68">
<rect id="Bounding box" x="0.5" width="68" height="68" fill="#D9D9D9"/>
</mask>
<g mask="url(#mask0_4_2541)">
<path id="mark_email_unread_2" d="M12.923 53.8315C11.8342 53.8315 10.9082 53.4499 10.1449 52.6867C9.38163 51.9234 9 50.9973 9 49.9085V18.0879C9 16.9991 9.38163 16.073 10.1449 15.3097C10.9082 14.5465 11.8342 14.1649 12.923 14.1649H42.0846C42.0156 14.5099 41.9665 14.8641 41.9375 15.2274C41.9085 15.5906 41.8867 15.9629 41.8721 16.3443H12.242L34.5 31.0777L44.8144 24.245C45.0324 24.4884 45.2537 24.7451 45.4782 25.0153C45.7028 25.2854 45.9392 25.5372 46.1875 25.7706L34.5 33.5841L11.1795 18.0062V49.9085C11.1795 50.417 11.3429 50.8348 11.6699 51.1617C11.9968 51.4886 12.4145 51.6521 12.923 51.6521H56.077C56.5855 51.6521 57.0032 51.4886 57.3302 51.1617C57.6571 50.8348 57.8205 50.417 57.8205 49.9085V28.2018C58.214 28.0988 58.583 27.9621 58.9275 27.7916C59.272 27.6212 59.6295 27.4397 60 27.2472V49.9085C60 50.9973 59.6184 51.9234 58.8551 52.6867C58.0918 53.4499 57.1658 53.8315 56.077 53.8315H12.923ZM54.3218 23.1008C52.4479 23.1008 50.8553 22.4413 49.5439 21.1223C48.2326 19.8032 47.5769 18.2067 47.5769 16.3328C47.5769 14.4589 48.2364 12.8662 49.5554 11.5549C50.8745 10.2436 52.471 9.58789 54.3449 9.58789C56.2188 9.58789 57.8114 10.2474 59.1227 11.5665C60.4341 12.8855 61.0898 14.482 61.0898 16.3559C61.0898 18.2298 60.4303 19.8224 59.1113 21.1338C57.7922 22.4451 56.1957 23.1008 54.3218 23.1008Z" fill="#00205B"/>
</g>
</g>
</svg>
