<svg width="69" height="68" viewBox="0 0 69 68" fill="none" xmlns="http://www.w3.org/2000/svg">
<g id="call">
<mask id="mask0_4_2529" style="mask-type:alpha" maskUnits="userSpaceOnUse" x="0" y="0" width="69" height="68">
<rect id="Bounding box" x="0.5" width="68" height="68" fill="#D9D9D9"/>
</mask>
<g mask="url(#mask0_4_2529)">
<path id="call_2" d="M54.035 56.6722C49.4654 56.6722 44.6896 55.459 39.7076 53.0325C34.7257 50.606 30.0479 47.1969 25.6744 42.8052C21.3009 38.4136 17.9009 33.7358 15.4744 28.772C13.048 23.8082 11.8347 19.0415 11.8347 14.4719C11.8347 13.5768 12.1279 12.8308 12.7143 12.234C13.3007 11.6372 14.0336 11.3389 14.9132 11.3389H21.1644C21.9807 11.3389 22.6613 11.584 23.2062 12.0744C23.7511 12.5648 24.1361 13.2187 24.3613 14.036L25.8329 20.3202C25.9307 21.0709 25.8933 21.745 25.7208 22.3425C25.5483 22.9401 25.2495 23.4331 24.8246 23.8215L18.5203 29.7065C19.8207 31.9659 21.192 34.0473 22.6341 35.9508C24.0762 37.8541 25.6054 39.6268 27.2219 41.2686C29.0054 43.0994 30.9198 44.7677 32.9649 46.2733C35.0099 47.779 37.2402 49.1893 39.6558 50.5042L45.7857 44.2164C46.2579 43.697 46.7684 43.3519 47.3172 43.1811C47.866 43.0104 48.4761 42.9723 49.1475 43.0667L54.4709 44.2545C55.2882 44.4071 55.9421 44.7964 56.4325 45.4223C56.9229 46.0482 57.168 46.765 57.168 47.5728V53.5937C57.168 54.4733 56.8697 55.2062 56.2729 55.7927C55.6761 56.379 54.9302 56.6722 54.035 56.6722ZM17.4305 27.7722L23.386 22.2363C23.5313 22.091 23.6312 21.8912 23.6857 21.637C23.7401 21.3827 23.7492 21.1466 23.7129 20.9286L22.2472 14.3902C22.2109 14.0996 22.0928 13.8816 21.893 13.7363C21.6932 13.591 21.448 13.5183 21.1574 13.5183H14.777C14.5591 13.5183 14.3774 13.591 14.2321 13.7363C14.0868 13.8816 14.0142 14.0632 14.0142 14.2811C13.9996 16.2282 14.2911 18.3268 14.8887 20.5772C15.4862 22.8275 16.3335 25.2258 17.4305 27.7722ZM41.7699 51.5232C43.706 52.5293 45.8438 53.2794 48.1831 53.7735C50.5224 54.2675 52.5366 54.5254 54.2258 54.5472C54.4437 54.5472 54.6253 54.4745 54.7706 54.3292C54.9159 54.1839 54.9886 54.0023 54.9886 53.7844V47.4584C54.9886 47.1678 54.9159 46.9226 54.7706 46.7229C54.6253 46.5231 54.4074 46.405 54.1167 46.3687L48.5645 45.2081C48.3466 45.1718 48.1559 45.1809 47.9924 45.2354C47.8289 45.2898 47.6564 45.3897 47.4748 45.535L41.7699 51.5232Z" fill="#00205B"/>
</g>
</g>
</svg>
