<svg width="69" height="68" viewBox="0 0 69 68" fill="none" xmlns="http://www.w3.org/2000/svg">
<g id="home_pin">
<mask id="mask0_4_2553" style="mask-type:alpha" maskUnits="userSpaceOnUse" x="0" y="0" width="69" height="68">
<rect id="Bounding box" x="0.5" width="68" height="68" fill="#D9D9D9"/>
</mask>
<g mask="url(#mask0_4_2553)">
<path id="home_pin_2" d="M27.6338 35.8526H31.7748V28.8237H37.2236V35.8526H41.3646V24.492L34.4992 19.975L27.6338 24.492V35.8526ZM34.4992 56.6286C40.0532 51.7864 44.4295 46.9035 47.6279 41.9797C50.8263 37.0558 52.4255 32.7868 52.4255 29.1724C52.4255 23.7818 50.7246 19.3429 47.3227 15.8558C43.9209 12.3686 39.6464 10.625 34.4992 10.625C29.352 10.625 25.0775 12.3686 21.6757 15.8558C18.2738 19.3429 16.5729 23.7818 16.5729 29.1724C16.5729 32.7868 18.1894 37.0558 21.4223 41.9797C24.6552 46.9035 29.0141 51.7864 34.4992 56.6286ZM34.4992 59.5545C27.8409 53.6662 22.8253 48.1748 19.4526 43.0803C16.0798 37.9857 14.3934 33.3498 14.3934 29.1724C14.3934 23.1788 16.345 18.235 20.2481 14.341C24.1512 10.447 28.9015 8.5 34.4992 8.5C40.0969 8.5 44.8472 10.447 48.7503 14.341C52.6534 18.235 54.605 23.1788 54.605 29.1724C54.605 33.3498 52.9186 37.9857 49.5458 43.0803C46.1731 48.1748 41.1575 53.6662 34.4992 59.5545Z" fill="#00205B"/>
</g>
</g>
</svg>
