<svg width="20" height="20" viewBox="0 0 20 20" fill="none" xmlns="http://www.w3.org/2000/svg">
<mask id="mask0_4_712" style="mask-type:alpha" maskUnits="userSpaceOnUse" x="0" y="0" width="20" height="20">
<rect width="20" height="20" fill="#D9D9D9"/>
</mask>
<g mask="url(#mask0_4_712)">
<path d="M12.75 13.917L13.9167 12.7503L10.8334 9.66699V5.83366H9.16669V10.3337L12.75 13.917ZM10 18.3337C8.84724 18.3337 7.76391 18.1149 6.75002 17.6774C5.73613 17.2399 4.85419 16.6462 4.10419 15.8962C3.35419 15.1462 2.76044 14.2642 2.32294 13.2503C1.88544 12.2364 1.66669 11.1531 1.66669 10.0003C1.66669 8.84755 1.88544 7.76421 2.32294 6.75033C2.76044 5.73644 3.35419 4.85449 4.10419 4.10449C4.85419 3.35449 5.73613 2.76074 6.75002 2.32324C7.76391 1.88574 8.84724 1.66699 10 1.66699C11.1528 1.66699 12.2361 1.88574 13.25 2.32324C14.2639 2.76074 15.1459 3.35449 15.8959 4.10449C16.6459 4.85449 17.2396 5.73644 17.6771 6.75033C18.1146 7.76421 18.3334 8.84755 18.3334 10.0003C18.3334 11.1531 18.1146 12.2364 17.6771 13.2503C17.2396 14.2642 16.6459 15.1462 15.8959 15.8962C15.1459 16.6462 14.2639 17.2399 13.25 17.6774C12.2361 18.1149 11.1528 18.3337 10 18.3337Z" fill="#EEF4FF"/>
</g>
</svg>
