<svg width="41" height="41" viewBox="0 0 41 41" fill="none" xmlns="http://www.w3.org/2000/svg">
<mask id="mask0_206_2756" style="mask-type:alpha" maskUnits="userSpaceOnUse" x="0" y="0" width="41" height="41">
<rect x="0.5" y="0.5" width="40" height="40" fill="#D9D9D9"/>
</mask>
<g mask="url(#mask0_206_2756)">
<path d="M34.656 36.75V11.9637C34.656 10.8683 34.271 9.93562 33.501 9.16562C32.731 8.39565 31.7983 8.01067 30.703 8.01067H28.4166V10.3803C28.4166 10.6557 28.3248 10.8851 28.1413 11.0687C27.9577 11.2522 27.7283 11.344 27.4529 11.344H19.1774C18.8091 11.344 18.5458 11.17 18.3873 10.8221C18.2288 10.4741 18.2208 10.147 18.3632 9.84079L21.2254 3.64854C21.3779 3.29543 21.601 3.02963 21.8948 2.85113C22.1886 2.67263 22.5562 2.58337 22.9978 2.58337H26.735C27.2154 2.58337 27.6158 2.75965 27.9361 3.11221C28.2564 3.46476 28.4166 3.88319 28.4166 4.3675V5.91671H30.703C32.3881 5.91671 33.8173 6.50324 34.9903 7.67629C36.1634 8.84938 36.7499 10.2785 36.7499 11.9637V36.75L34.656 36.75ZM20.9294 9.25H26.3226V4.67729H22.9727L20.9294 9.25ZM8.63029 36.75C7.38921 36.75 6.34889 36.3302 5.50933 35.4906C4.66978 34.6511 4.25 33.6108 4.25 32.3697V28.203C4.25 27.3711 4.55021 26.6059 5.15062 25.9076C5.75104 25.2092 6.56194 24.8112 7.58333 24.7137V20.5962C7.58333 19.8848 7.83996 19.2725 8.35321 18.7593C8.86649 18.246 9.47879 17.9893 10.1901 17.9893H23.7371C24.4485 17.9893 25.0608 18.246 25.574 18.7593C26.0873 19.2725 26.344 19.8848 26.344 20.5962V24.7137C27.3653 24.811 28.1762 25.1907 28.7766 25.8529C29.3771 26.5151 29.6773 27.2984 29.6773 28.203V32.3697C29.6773 33.6108 29.2575 34.6511 28.4179 35.4906C27.5784 36.3302 26.538 36.75 25.297 36.75H8.63029ZM9.67729 20.5962V25.1581C10.1773 25.516 10.5801 25.9688 10.8856 26.5163C11.1912 27.0638 11.344 27.6261 11.344 28.203V29.656H22.5833V28.203C22.5833 27.6261 22.7361 27.0638 23.0417 26.5163C23.3472 25.9688 23.75 25.516 24.25 25.1581V20.5962C24.25 20.4466 24.2019 20.3237 24.1058 20.2275C24.0096 20.1314 23.8867 20.0833 23.7371 20.0833H10.1901C10.0405 20.0833 9.91767 20.1314 9.8215 20.2275C9.72536 20.3237 9.67729 20.4466 9.67729 20.5962ZM8.63029 34.656H25.297C25.9829 34.656 26.5354 34.4178 26.9546 33.9415C27.3738 33.4652 27.5833 32.9413 27.5833 32.3697V28.203C27.5833 27.7731 27.4483 27.4235 27.1783 27.1541C26.9083 26.8847 26.5578 26.75 26.127 26.75C25.6961 26.75 25.3468 26.8847 25.079 27.1541C24.8112 27.4235 24.6773 27.7731 24.6773 28.203V31.75H9.25V28.203C9.25 27.7731 9.11499 27.4235 8.84496 27.1541C8.57493 26.8847 8.2245 26.75 7.79367 26.75C7.36281 26.75 7.01347 26.8847 6.74567 27.1541C6.47786 27.4235 6.34396 27.7731 6.34396 28.203V32.3697C6.34396 32.9413 6.55354 33.4652 6.97271 33.9415C7.39187 34.4178 7.9444 34.656 8.63029 34.656Z" fill="#1C1B1F"/>
</g>
</svg>
