<svg width="41" height="41" viewBox="0 0 41 41" fill="none" xmlns="http://www.w3.org/2000/svg">
<mask id="mask0_199_2421" style="mask-type:alpha" maskUnits="userSpaceOnUse" x="0" y="0" width="41" height="41">
<rect x="0.5" y="0.5" width="40" height="40" fill="#D9D9D9"/>
</mask>
<g mask="url(#mask0_199_2421)">
<path d="M10.6068 24.6881H30.3931C30.5427 24.6881 30.6655 24.6373 30.7617 24.5358C30.8579 24.4343 30.906 24.2927 30.906 24.1111V18.9242C30.906 18.7532 30.8579 18.6143 30.7617 18.5075C30.6655 18.4006 30.5427 18.3472 30.3931 18.3472H17.7329V10.094H13.835C12.7932 10.094 11.9093 10.4677 11.1832 11.215C10.457 11.9623 10.094 12.8725 10.094 13.9455V24.1111C10.094 24.2927 10.142 24.4343 10.2382 24.5358C10.3344 24.6373 10.4572 24.6881 10.6068 24.6881ZM20.5088 34.2393C21.1746 34.2393 21.8372 34.1884 22.4966 34.0865C23.156 33.9847 23.8082 33.8333 24.453 33.6325V26.782H16.5469V33.6325C17.1908 33.8333 17.8456 33.9847 18.5114 34.0865C19.1772 34.1884 19.843 34.2393 20.5088 34.2393ZM20.5 36.3333C18.3912 36.3333 16.3747 35.9339 14.4505 35.1351C12.5262 34.3363 10.8045 33.1962 9.28525 31.7147L10.7852 30.2148C11.3265 30.7561 11.9046 31.2371 12.5195 31.6578C13.1345 32.0785 13.7789 32.4579 14.453 32.796V26.782H10.6068C9.8905 26.782 9.27694 26.5213 8.76617 25.9998C8.25539 25.4784 8 24.8488 8 24.1111V13.9455C8 12.3045 8.57118 10.9034 9.71354 9.74205C10.8559 8.58071 12.2292 8.00005 13.8333 8.00005H19.8268V16.2533H30.3931C31.1094 16.2533 31.723 16.5167 32.2337 17.0435C32.7445 17.5702 32.9999 18.1971 32.9999 18.9242V24.1111C32.9999 24.8488 32.7445 25.4784 32.2337 25.9998C31.723 26.5213 31.1094 26.782 30.3931 26.782H26.5469V32.796C27.2264 32.4719 27.8694 32.0908 28.4759 31.6528C29.0824 31.2148 29.6563 30.7297 30.1976 30.1977L31.6976 31.6976C30.1783 33.1606 28.4584 34.2989 26.5379 35.1127C24.6173 35.9264 22.6047 36.3333 20.5 36.3333Z" fill="#1C1B1F"/>
</g>
</svg>
