<svg width="41" height="41" viewBox="0 0 41 41" fill="none" xmlns="http://www.w3.org/2000/svg">
<mask id="mask0_199_2553" style="mask-type:alpha" maskUnits="userSpaceOnUse" x="0" y="0" width="41" height="41">
<rect x="0.5" y="0.5" width="40" height="40" fill="#D9D9D9"/>
</mask>
<g mask="url(#mask0_199_2553)">
<path d="M15.6117 35.6922C15.028 35.6922 14.5323 35.4896 14.1245 35.0843C13.7168 34.679 13.5129 34.1845 13.5129 33.6008C13.5129 33.017 13.7158 32.5195 14.1215 32.1083C14.5273 31.697 15.0197 31.4914 15.5989 31.4914C16.1861 31.4914 16.6836 31.6958 17.0914 32.1046C17.4991 32.5133 17.703 33.0096 17.703 33.5933C17.703 34.1771 17.5004 34.6728 17.0951 35.0806C16.6898 35.4883 16.1953 35.6922 15.6117 35.6922ZM31.4853 35.6922C30.9016 35.6922 30.4041 35.4896 29.9928 35.0843C29.5816 34.679 29.376 34.1845 29.376 33.6008C29.376 33.017 29.5804 32.5195 29.9891 32.1083C30.3979 31.697 30.8941 31.4914 31.4779 31.4914C32.0616 31.4914 32.5574 31.6958 32.9651 32.1046C33.3729 32.5133 33.5768 33.0096 33.5768 33.5933C33.5768 34.1771 33.3742 34.6728 32.9689 35.0806C32.5636 35.4883 32.0691 35.6922 31.4853 35.6922ZM22.3119 13.8975L16.4872 6.89543C17.4558 6.45882 18.4665 6.13492 19.5192 5.92373C20.5719 5.71256 21.6025 5.60698 22.6111 5.60698C23.9066 5.60698 25.1438 5.76777 26.3226 6.08935C27.5013 6.41091 28.5911 6.89541 29.5918 7.54285L22.3119 13.8975ZM20.8611 29.6666C18.8098 29.6666 17.0752 28.9585 15.6571 27.5421C14.239 26.1258 13.53 24.3867 13.53 22.3248V10.6091L12.3505 9.23085C11.6667 8.42029 11.1079 7.87007 10.6742 7.58018C10.2404 7.2903 9.80415 7.14535 9.36538 7.14535C8.58496 7.14535 7.96643 7.43132 7.50979 8.00327C7.05313 8.57518 6.82479 9.23152 6.82479 9.97227H4.73083C4.73083 8.62496 5.18497 7.46799 6.09325 6.50135C7.00153 5.53471 8.10221 5.05139 9.39529 5.05139C10.1852 5.05139 10.9088 5.24352 11.5663 5.62777C12.2236 6.01204 12.9922 6.74016 13.8718 7.8121L30.1025 27.282C30.4985 27.7436 30.5622 28.2564 30.2937 28.8205C30.0252 29.3846 29.5818 29.6666 28.9636 29.6666H20.8611ZM20.8611 27.5727H27.5705L15.6239 13.1474V22.3248C15.6239 23.8077 16.1278 25.0531 17.1357 26.0609C18.1435 27.0688 19.3853 27.5727 20.8611 27.5727Z" fill="#1C1B1F"/>
</g>
</svg>
