<svg width="41" height="41" viewBox="0 0 41 41" fill="none" xmlns="http://www.w3.org/2000/svg">
<mask id="mask0_199_2559" style="mask-type:alpha" maskUnits="userSpaceOnUse" x="0" y="0" width="41" height="41">
<rect x="0.5" y="0.5" width="40" height="40" fill="#D9D9D9"/>
</mask>
<g mask="url(#mask0_199_2559)">
<path d="M31.7931 13.9669C31.3527 13.9669 30.9808 13.8162 30.6774 13.5147C30.374 13.2131 30.2223 12.8395 30.2223 12.3937C30.2223 12.184 30.2655 11.983 30.352 11.7907C30.4386 11.5983 30.5497 11.4343 30.6855 11.2986C31.0113 10.9728 31.7367 10.6149 32.8616 10.2249L34.5491 9.64003C34.3483 10.2469 34.1507 10.812 33.9562 11.3355C33.8002 11.7757 33.6238 12.2068 33.4269 12.6287C33.23 13.0507 33.0528 13.3408 32.8953 13.499C32.7564 13.6379 32.5898 13.7506 32.3955 13.8371C32.2012 13.9237 32.0004 13.9669 31.7931 13.9669ZM7.81488 34.2659C7.10327 34.2659 6.4915 34.0093 5.97959 33.4961C5.46764 32.9828 5.21167 32.3705 5.21167 31.6592V9.24474C5.21167 8.53337 5.46839 7.92107 5.98184 7.40782C6.49528 6.89457 7.10781 6.63794 7.81942 6.63794H17.4695C18.1811 6.63794 18.7929 6.89457 19.3048 7.40782C19.8167 7.92107 20.0727 8.53337 20.0727 9.24474V23.1251C20.3975 22.9584 20.7354 22.8202 21.0866 22.7105C21.4377 22.6008 21.7973 22.546 22.1653 22.546C23.329 22.546 24.3182 22.9532 25.1328 23.7675C25.9474 24.5818 26.3547 25.5707 26.3547 26.734V29.9712C26.3547 30.5482 26.5773 31.0593 27.0225 31.5044C27.4677 31.9495 27.9835 32.172 28.57 32.172C29.1423 32.172 29.648 31.9495 30.0871 31.5044C30.5262 31.0593 30.7458 30.5467 30.7458 29.9665V21.2959H29.1753V19.2269C27.7714 18.6153 26.6352 17.7031 25.7666 16.4904C24.898 15.2778 24.4638 13.9153 24.4638 12.4032C24.4638 10.3602 25.1803 8.62682 26.6134 7.20307C28.0466 5.77932 29.7759 5.06744 31.8013 5.06744C33.8347 5.06744 35.5632 5.78008 36.9866 7.20536C38.41 8.63067 39.1218 10.3613 39.1218 12.3972C39.1218 13.9066 38.6875 15.2695 37.8189 16.4859C36.9503 17.7022 35.814 18.6161 34.4102 19.2276V21.2959H32.8397V29.9712C32.8397 31.1268 32.4159 32.1315 31.5681 32.9853C30.7204 33.8391 29.7215 34.2659 28.5713 34.2659C27.407 34.2659 26.3975 33.8391 25.5428 32.9853C24.6881 32.1315 24.2608 31.1268 24.2608 29.9712V26.734C24.2608 26.1407 24.06 25.6433 23.6585 25.242C23.2571 24.8406 22.7596 24.6399 22.1662 24.6399C21.5889 24.6399 21.0957 24.8406 20.6865 25.242C20.2773 25.6433 20.0727 26.1407 20.0727 26.734V31.6592C20.0727 32.3705 19.8159 32.9828 19.3025 33.4961C18.7891 34.0093 18.1766 34.2659 17.465 34.2659H7.81488ZM31.7907 17.6315C33.2444 17.6315 34.4806 17.1227 35.4995 16.1052C36.5184 15.0876 37.0278 13.8521 37.0278 12.3984C37.0278 10.9448 36.519 9.70858 35.5015 8.68969C34.484 7.67081 33.2484 7.16136 31.7948 7.16136C30.3411 7.16136 29.1049 7.67014 28.086 8.6877C27.0671 9.70522 26.5577 10.9408 26.5577 12.3944C26.5577 13.848 27.0665 15.0843 28.084 16.1032C29.1015 17.122 30.3371 17.6315 31.7907 17.6315ZM7.8185 32.172H17.4659C17.6155 32.172 17.7383 32.1239 17.8345 32.0278C17.9306 31.9316 17.9787 31.8087 17.9787 31.6592V27.0502L14.8377 30.1912V27.2169L17.9787 24.0759V19.1976L14.8377 22.3386V19.3644L17.9787 16.2234V11.1421L14.8377 14.2831V11.3088L17.2704 8.87611C17.2277 8.82269 17.1769 8.78531 17.1182 8.76394C17.0594 8.74258 16.9873 8.7319 16.9018 8.7319H8.38254C8.29707 8.7319 8.22496 8.74258 8.16621 8.76394C8.10743 8.78531 8.05668 8.82269 8.01396 8.87611L10.4467 11.3088V14.2831L7.30563 11.1421V16.2234L10.4467 19.3644V22.3386L7.30563 19.1976V24.0759L10.4467 27.2169V30.1912L7.30563 27.0502V31.6592C7.30563 31.8087 7.35371 31.9316 7.44988 32.0278C7.54605 32.1239 7.66892 32.172 7.8185 32.172Z" fill="#1C1B1F"/>
</g>
</svg>
