<svg width="41" height="41" viewBox="0 0 41 41" fill="none" xmlns="http://www.w3.org/2000/svg">
<mask id="mask0_199_2613" style="mask-type:alpha" maskUnits="userSpaceOnUse" x="0" y="0" width="41" height="41">
<rect x="0.5" y="0.5" width="40" height="40" fill="#D9D9D9"/>
</mask>
<g mask="url(#mask0_199_2613)">
<path d="M7.29063 36.3333C6.5743 36.3333 5.96074 36.0779 5.44996 35.5671C4.93921 35.0563 4.68384 34.4428 4.68384 33.7264V13.9402C4.68384 13.2238 4.93921 12.6103 5.44996 12.0995C5.96074 11.5887 6.5743 11.3333 7.29063 11.3333H14.5877L20.5171 5.40393L26.4465 11.3333H33.7435C34.4599 11.3333 35.0735 11.5887 35.5842 12.0995C36.095 12.6103 36.3504 13.2238 36.3504 13.9402V33.7264C36.3504 34.4428 36.095 35.0563 35.5842 35.5671C35.0735 36.0779 34.4599 36.3333 33.7435 36.3333H7.29063ZM7.29063 34.2393H33.7435C33.8718 34.2393 33.9893 34.1859 34.0961 34.079C34.203 33.9722 34.2564 33.8547 34.2564 33.7264V13.9402C34.2564 13.812 34.203 13.6944 34.0961 13.5876C33.9893 13.4807 33.8718 13.4273 33.7435 13.4273H7.29063C7.16241 13.4273 7.04488 13.4807 6.93805 13.5876C6.83121 13.6944 6.7778 13.812 6.7778 13.9402V33.7264C6.7778 33.8547 6.83121 33.9722 6.93805 34.079C7.04488 34.1859 7.16241 34.2393 7.29063 34.2393ZM12.0321 30.0833H29.2542L23.9423 23.0406L19.1389 29.2713L15.7607 25.1325L12.0321 30.0833ZM29.1891 21.9636C29.7361 21.9636 30.2017 21.7704 30.586 21.384C30.9702 20.9976 31.1623 20.5309 31.1623 19.9839C31.1623 19.4369 30.9691 18.9713 30.5827 18.5871C30.1963 18.2028 29.7296 18.0107 29.1826 18.0107C28.6356 18.0107 28.17 18.2039 27.7858 18.5903C27.4015 18.9768 27.2094 19.4435 27.2094 19.9904C27.2094 20.5374 27.4026 21.003 27.789 21.3873C28.1755 21.7715 28.6422 21.9636 29.1891 21.9636ZM17.0214 11.3333H24.0235L20.5171 7.83764L17.0214 11.3333Z" fill="#1C1B1F"/>
</g>
</svg>
