<svg width="41" height="41" viewBox="0 0 41 41" fill="none" xmlns="http://www.w3.org/2000/svg">
<mask id="mask0_199_2397" style="mask-type:alpha" maskUnits="userSpaceOnUse" x="0" y="0" width="41" height="41">
<rect x="0.5" y="0.5" width="40" height="40" fill="#D9D9D9"/>
</mask>
<g mask="url(#mask0_199_2397)">
<path d="M8.156 31.3334H7.07212L6.34196 28.0001H4.66675V20.7224C4.66675 19.987 4.91693 19.3626 5.41729 18.8493C5.91765 18.3359 6.53641 18.0792 7.27358 18.0792H8.12404V13.107C8.12404 12.393 8.37862 11.7801 8.88779 11.2681C9.39696 10.7562 10.0113 10.5002 10.7308 10.5002H30.2521C30.9662 10.5002 31.5791 10.7562 32.0911 11.2681C32.603 11.7801 32.859 12.393 32.859 13.107V18.0792H33.7265C34.4405 18.0792 35.0535 18.3352 35.5654 18.8471C36.0774 19.3591 36.3333 19.972 36.3333 20.686V28.0001H34.6581L33.9266 31.3334H32.8406L32.109 28.0001H8.90812L8.156 31.3334ZM21.547 18.0792H30.765V13.107C30.765 12.9575 30.7151 12.8346 30.6154 12.7385C30.5157 12.6423 30.3946 12.5942 30.2521 12.5942H21.547V18.0792ZM10.218 18.0792H19.4531V12.5942H10.7308C10.5812 12.5942 10.4584 12.6423 10.3622 12.7385C10.2661 12.8346 10.218 12.9575 10.218 13.107V18.0792ZM6.76071 25.9061H34.2394V20.686C34.2394 20.5436 34.1913 20.4225 34.0951 20.3228C33.999 20.2231 33.8761 20.1732 33.7265 20.1732H7.27358C7.124 20.1732 7.00112 20.2231 6.90496 20.3228C6.80879 20.4225 6.76071 20.5436 6.76071 20.686V25.9061Z" fill="#1C1B1F"/>
</g>
</svg>
