<svg width="41" height="41" viewBox="0 0 41 41" fill="none" xmlns="http://www.w3.org/2000/svg">
<mask id="mask0_199_2601" style="mask-type:alpha" maskUnits="userSpaceOnUse" x="0" y="0" width="41" height="41">
<rect x="0.5" y="0.5" width="40" height="40" fill="#D9D9D9"/>
</mask>
<g mask="url(#mask0_199_2601)">
<path d="M19.453 33.7073V21.094L8.42733 14.7179V27.0427C8.42733 27.1282 8.44871 27.2083 8.49146 27.2831C8.53421 27.3579 8.59832 27.422 8.68379 27.4755L19.453 33.7073ZM21.547 33.7073L32.3162 27.4755C32.4017 27.422 32.4658 27.3579 32.5085 27.2831C32.5513 27.2083 32.5727 27.1282 32.5727 27.0427V14.7009L21.547 21.094V33.7073ZM19.1966 35.9669L7.63679 29.2991C7.22654 29.0669 6.90675 28.7486 6.67742 28.344C6.44805 27.9395 6.33337 27.505 6.33337 27.0406V13.9594C6.33337 13.495 6.44805 13.0606 6.67742 12.656C6.90675 12.2515 7.22654 11.9331 7.63679 11.7009L19.1966 5.03319C19.6068 4.80102 20.0413 4.68494 20.5 4.68494C20.9587 4.68494 21.3932 4.80102 21.8034 5.03319L33.3632 11.7009C33.7735 11.9331 34.0932 12.2515 34.3226 12.656C34.5519 13.0606 34.6666 13.495 34.6666 13.9594V27.0406C34.6666 27.505 34.5519 27.9395 34.3226 28.344C34.0932 28.7486 33.7735 29.0669 33.3632 29.2991L21.8034 35.9669C21.3932 36.199 20.9587 36.3151 20.5 36.3151C20.0413 36.3151 19.6068 36.199 19.1966 35.9669ZM27.0053 15.5193L31.3836 12.9915L20.7564 6.84298C20.6709 6.79667 20.5855 6.77352 20.5 6.77352C20.4145 6.77352 20.3291 6.79667 20.2436 6.84298L16.1399 9.20839L27.0053 15.5193ZM20.5 19.312L24.905 16.7415L14.0043 10.4487L9.59933 12.9915L20.5 19.312Z" fill="#1C1B1F"/>
</g>
</svg>
