<svg width="41" height="41" viewBox="0 0 41 41" fill="none" xmlns="http://www.w3.org/2000/svg">
<mask id="mask0_0_978" style="mask-type:alpha" maskUnits="userSpaceOnUse" x="0" y="0" width="41" height="41">
<rect x="0.5" y="0.5" width="40" height="40" fill="#D9D9D9"/>
</mask>
<g mask="url(#mask0_0_978)">
<path d="M19.4532 33.7072V21.0939L8.42745 14.7178V27.0426C8.42745 27.1281 8.44883 27.2082 8.49158 27.283C8.53433 27.3578 8.59844 27.4219 8.68391 27.4754L19.4532 33.7072ZM21.5471 33.7072L32.3163 27.4754C32.4018 27.4219 32.4659 27.3578 32.5087 27.283C32.5514 27.2082 32.5728 27.1281 32.5728 27.0426V14.7007L21.5471 21.0939V33.7072ZM19.1967 35.9667L7.63691 29.299C7.22666 29.0668 6.90687 28.7485 6.67754 28.3439C6.44818 27.9393 6.3335 27.5049 6.3335 27.0405V13.9593C6.3335 13.4949 6.44818 13.0605 6.67754 12.6559C6.90687 12.2513 7.22666 11.933 7.63691 11.7008L19.1967 5.03307C19.607 4.8009 20.0414 4.68481 20.5001 4.68481C20.9588 4.68481 21.3933 4.8009 21.8035 5.03307L33.3633 11.7008C33.7736 11.933 34.0934 12.2513 34.3227 12.6559C34.5521 13.0605 34.6667 13.4949 34.6667 13.9593V27.0405C34.6667 27.5049 34.5521 27.9393 34.3227 28.3439C34.0934 28.7485 33.7736 29.0668 33.3633 29.299L21.8035 35.9667C21.3933 36.1989 20.9588 36.315 20.5001 36.315C20.0414 36.315 19.607 36.1989 19.1967 35.9667ZM27.0055 15.5192L31.3837 12.9914L20.7565 6.84286C20.6711 6.79655 20.5856 6.7734 20.5001 6.7734C20.4146 6.7734 20.3292 6.79655 20.2437 6.84286L16.14 9.20827L27.0055 15.5192ZM20.5001 19.3119L24.9051 16.7414L14.0044 10.4486L9.59945 12.9914L20.5001 19.3119Z" fill="#1C1B1F"/>
</g>
</svg>
