<svg width="41" height="41" viewBox="0 0 41 41" fill="none" xmlns="http://www.w3.org/2000/svg">
<mask id="mask0_199_2649" style="mask-type:alpha" maskUnits="userSpaceOnUse" x="0" y="0" width="41" height="41">
<rect x="0.5" y="0.5" width="40" height="40" fill="#D9D9D9"/>
</mask>
<g mask="url(#mask0_199_2649)">
<path d="M32.5727 32.0598V26.2617H8.42733V32.0598C8.42733 32.2094 8.47542 32.3323 8.57158 32.4284C8.66775 32.5246 8.79062 32.5727 8.94021 32.5727H32.0598C32.2094 32.5727 32.3323 32.5246 32.4284 32.4284C32.5246 32.3323 32.5727 32.2094 32.5727 32.0598ZM32.5727 24.1678V16.8323H8.42733V24.1678H32.5727ZM32.5727 14.7383V8.94021C32.5727 8.79063 32.5246 8.66775 32.4284 8.57158C32.3323 8.47542 32.2094 8.42733 32.0598 8.42733H8.94021C8.79062 8.42733 8.66775 8.47542 8.57158 8.57158C8.47542 8.66775 8.42733 8.79063 8.42733 8.94021V14.7383H32.5727ZM8.94021 34.6666C8.22387 34.6666 7.61032 34.4112 7.09954 33.9005C6.58876 33.3897 6.33337 32.7761 6.33337 32.0598V8.94021C6.33337 8.22388 6.58876 7.61032 7.09954 7.09954C7.61032 6.58876 8.22387 6.33337 8.94021 6.33337H32.0598C32.7761 6.33337 33.3897 6.58876 33.9005 7.09954C34.4112 7.61032 34.6666 8.22388 34.6666 8.94021V32.0598C34.6666 32.7761 34.4112 33.3897 33.9005 33.9005C33.3897 34.4112 32.7761 34.6666 32.0598 34.6666H8.94021Z" fill="#1C1B1F"/>
</g>
</svg>
