<svg width="41" height="41" viewBox="0 0 41 41" fill="none" xmlns="http://www.w3.org/2000/svg">
<mask id="mask0_199_1391" style="mask-type:alpha" maskUnits="userSpaceOnUse" x="0" y="0" width="41" height="41">
<rect x="0.5" y="0.5" width="40" height="40" fill="#D9D9D9"/>
</mask>
<g mask="url(#mask0_199_1391)">
<path d="M19.453 32.1667V18.8333H11.1485C10.7092 18.8333 10.3561 18.6551 10.0893 18.2986C9.82251 17.9421 9.75784 17.5559 9.89532 17.14L12.9348 7.32704C13.1148 6.78396 13.4336 6.34369 13.8909 6.00625C14.3483 5.66883 14.8633 5.50012 15.4359 5.50012H25.564C26.1366 5.50012 26.6516 5.66883 27.1089 6.00625C27.5664 6.34369 27.8851 6.78396 28.0651 7.32704L31.1046 17.14C31.242 17.5559 31.1774 17.9421 30.9106 18.2986C30.6438 18.6551 30.2907 18.8333 29.8514 18.8333H21.5469V32.1667H19.453ZM12.2029 16.7394H28.7969L26.0886 7.96271C26.0494 7.85584 25.9845 7.76769 25.8936 7.69825C25.8028 7.6288 25.7022 7.59408 25.5918 7.59408H15.4188C15.3012 7.59408 15.1971 7.6288 15.1062 7.69825C15.0154 7.76769 14.954 7.85584 14.9219 7.96271L12.2029 16.7394ZM14.453 36.3333V34.2393H26.5469V36.3333H14.453Z" fill="#1C1B1F"/>
</g>
</svg>
