<svg width="41" height="41" viewBox="0 0 41 41" fill="none" xmlns="http://www.w3.org/2000/svg">
<mask id="mask0_0_997" style="mask-type:alpha" maskUnits="userSpaceOnUse" x="0" y="0" width="41" height="41">
<rect x="0.5" y="0.5" width="40" height="40" fill="#D9D9D9"/>
</mask>
<g mask="url(#mask0_0_997)">
<path d="M19.453 32.1668V18.8335H11.1485C10.7092 18.8335 10.3561 18.6552 10.0893 18.2987C9.82251 17.9423 9.75784 17.5561 9.89532 17.1401L12.9348 7.32716C13.1148 6.78408 13.4336 6.34381 13.8909 6.00637C14.3483 5.66895 14.8633 5.50024 15.4359 5.50024H25.564C26.1366 5.50024 26.6516 5.66895 27.1089 6.00637C27.5664 6.34381 27.8851 6.78408 28.0651 7.32716L31.1046 17.1401C31.242 17.5561 31.1774 17.9423 30.9106 18.2987C30.6438 18.6552 30.2907 18.8335 29.8514 18.8335H21.5469V32.1668H19.453ZM12.2029 16.7395H28.7969L26.0886 7.96283C26.0494 7.85597 25.9845 7.76781 25.8936 7.69837C25.8028 7.62893 25.7022 7.5942 25.5918 7.5942H15.4188C15.3012 7.5942 15.1971 7.62893 15.1062 7.69837C15.0154 7.76781 14.954 7.85597 14.9219 7.96283L12.2029 16.7395ZM14.453 36.3334V34.2395H26.5469V36.3334H14.453Z" fill="#1C1B1F"/>
</g>
</svg>
