<svg width="41" height="41" viewBox="0 0 41 41" fill="none" xmlns="http://www.w3.org/2000/svg">
<mask id="mask0_199_2583" style="mask-type:alpha" maskUnits="userSpaceOnUse" x="0" y="0" width="41" height="41">
<rect x="0.5" y="0.5" width="40" height="40" fill="#D9D9D9"/>
</mask>
<g mask="url(#mask0_199_2583)">
<path d="M6.33337 34.6667V5.71375C6.33337 5.41711 6.43425 5.16846 6.636 4.96779C6.83775 4.7671 7.08775 4.66675 7.386 4.66675C7.68422 4.66675 7.93233 4.7671 8.13033 4.96779C8.32833 5.16846 8.42733 5.41711 8.42733 5.71375V8.00008H32.5727V5.71375C32.5727 5.41711 32.6735 5.16846 32.8753 4.96779C33.077 4.7671 33.327 4.66675 33.6252 4.66675C33.9235 4.66675 34.1716 4.7671 34.3696 4.96779C34.5676 5.16846 34.6666 5.41711 34.6666 5.71375V34.6667H32.5727V16.5684H8.42733V34.6667H6.33337ZM8.42733 14.4745H32.5727V10.094H8.42733V14.4745ZM19.453 34.6667V29.6079H14.5972V27.514H26.3867V29.6079H21.547V34.6667H19.453Z" fill="#1C1B1F"/>
</g>
</svg>
