<svg width="41" height="41" viewBox="0 0 41 41" fill="none" xmlns="http://www.w3.org/2000/svg">
<mask id="mask0_199_2577" style="mask-type:alpha" maskUnits="userSpaceOnUse" x="0" y="0" width="41" height="41">
<rect x="0.5" y="0.5" width="40" height="40" fill="#D9D9D9"/>
</mask>
<g mask="url(#mask0_199_2577)">
<path d="M12.5278 33.7531C11.7244 33.7531 11.0467 33.4694 10.4948 32.9021C9.94277 32.3348 9.66677 31.6402 9.66677 30.8183V16.0809L6.59522 8.77993H3.38477V6.68597H7.99156L10.6731 13H34.6538C35.1473 13 35.5238 13.2089 35.7831 13.6266C36.0423 14.0444 36.0559 14.4722 35.8237 14.9103L31.2222 23.9647C32.4608 24.0929 33.4994 24.6214 34.3381 25.5502C35.1768 26.479 35.5961 27.573 35.5961 28.8322C35.5961 30.1903 35.1248 31.3472 34.1822 32.3027C33.2396 33.2582 32.0899 33.736 30.7332 33.736C29.3598 33.736 28.2011 33.2582 27.257 32.3027C26.3129 31.3472 25.8409 30.1903 25.8409 28.8322C25.8409 28.2845 25.9239 27.7648 26.0898 27.2729C26.2558 26.7811 26.4965 26.3343 26.8121 25.9326L19.7436 25.3194L15.0812 32.2744C14.7963 32.7103 14.4286 33.0657 13.9781 33.3406C13.5275 33.6156 13.0441 33.7531 12.5278 33.7531ZM28.8313 24.0481L33.3794 15.094H11.5257L13.8845 20.6581C14.151 21.2963 14.557 21.8207 15.1026 22.2313C15.6482 22.6419 16.3138 22.886 17.0994 22.9636L28.8313 24.0481ZM12.5535 31.6174C12.6945 31.6174 12.9563 31.4483 13.3388 31.1099L17.3794 25.1003C16.2412 24.98 15.2362 24.6922 14.3644 24.2371C13.4926 23.782 12.8413 23.0879 12.4103 22.1548L11.7607 20.6932V30.8439C11.7607 31.0766 11.8398 31.2637 11.9979 31.4052C12.156 31.5467 12.3412 31.6174 12.5535 31.6174ZM30.6923 31.5683C31.49 31.5683 32.1578 31.296 32.6955 30.7515C33.2333 30.207 33.5021 29.5462 33.5021 28.7691C33.5021 27.9714 33.2333 27.3037 32.6955 26.7659C32.1578 26.2282 31.49 25.9593 30.6923 25.9593C29.9153 25.9593 29.2545 26.2282 28.7099 26.7659C28.1654 27.3037 27.8932 27.9714 27.8932 28.7691C27.8932 29.5462 28.1654 30.207 28.7099 30.7515C29.2545 31.296 29.9153 31.5683 30.6923 31.5683Z" fill="#1C1B1F"/>
</g>
</svg>
