<svg width="41" height="41" viewBox="0 0 41 41" fill="none" xmlns="http://www.w3.org/2000/svg">
<mask id="mask0_206_2762" style="mask-type:alpha" maskUnits="userSpaceOnUse" x="0" y="0" width="41" height="41">
<rect x="0.5" y="0.5" width="40" height="40" fill="#D9D9D9"/>
</mask>
<g mask="url(#mask0_206_2762)">
<path d="M7.0085 12.624C7.0085 11.5283 7.38771 10.6013 8.14612 9.84289C8.90454 9.08447 9.83158 8.70526 10.9272 8.70526H30.0727C31.1683 8.70526 32.0954 9.08447 32.8538 9.84289C33.6122 10.6013 33.9914 11.5283 33.9914 12.624V15.6988C35.126 15.6346 36.0777 15.9457 36.8466 16.632C37.6155 17.3182 37.9999 18.2343 37.9999 19.3803V28.6325C37.9999 29.7281 37.6207 30.6552 36.8623 31.4136C36.1039 32.172 35.1768 32.5512 34.0812 32.5512H6.91875C5.82308 32.5512 4.89604 32.172 4.13763 31.4136C3.37921 30.6552 3 29.7281 3 28.6325V19.3803C3 18.2343 3.38729 17.3182 4.16188 16.632C4.93643 15.9457 5.88531 15.6346 7.0085 15.6988V12.624ZM9.10246 12.624V16.5534C9.54263 16.8882 9.89661 17.2788 10.1644 17.7254C10.4322 18.172 10.5661 18.7236 10.5661 19.3803V24.0214H30.4338V19.3803C30.4338 18.7236 30.5677 18.172 30.8355 17.7254C31.1033 17.2788 31.4573 16.8882 31.8975 16.5534V12.624C31.8975 12.0959 31.7254 11.6597 31.3812 11.3155C31.037 10.9713 30.6008 10.7992 30.0727 10.7992H10.9272C10.3991 10.7992 9.96295 10.9713 9.61875 11.3155C9.27456 11.6597 9.10246 12.0959 9.10246 12.624ZM32.5278 26.1153H8.47217V19.3818C8.47217 19.1287 8.43335 18.8997 8.35571 18.695C8.2781 18.4902 8.1629 18.3114 8.01013 18.1586C7.85735 18.0059 7.67679 17.8907 7.46846 17.813C7.26013 17.7354 7.03458 17.6966 6.79183 17.6966C6.27603 17.6966 5.8641 17.8506 5.55604 18.1586C5.24799 18.4667 5.09396 18.875 5.09396 19.3836V28.6336C5.09396 29.1578 5.26606 29.5927 5.61025 29.9386C5.95444 30.2844 6.39061 30.4573 6.91875 30.4573H34.0812C34.6093 30.4573 35.0455 30.2852 35.3897 29.941C35.7339 29.5968 35.906 29.1621 35.906 28.6369V19.3839C35.906 18.8751 35.7519 18.4667 35.4439 18.1586C35.1358 17.8506 34.7239 17.6966 34.2081 17.6966C33.9653 17.6966 33.7398 17.7354 33.5315 17.813C33.3231 17.8907 33.1438 18.0059 32.9935 18.1586C32.8431 18.3114 32.7279 18.4896 32.6478 18.6933C32.5678 18.897 32.5278 19.126 32.5278 19.3803V26.1153Z" fill="#1C1B1F"/>
</g>
</svg>
