<svg width="41" height="41" viewBox="0 0 41 41" fill="none" xmlns="http://www.w3.org/2000/svg">
<mask id="mask0_0_907" style="mask-type:alpha" maskUnits="userSpaceOnUse" x="0" y="0" width="41" height="41">
<rect x="0.5" y="0.5" width="40" height="40" fill="#D9D9D9"/>
</mask>
<g mask="url(#mask0_0_907)">
<path d="M15.611 30.8846H32.0597C32.2093 30.8846 32.3322 30.8366 32.4284 30.7404C32.5245 30.6443 32.5726 30.5214 32.5726 30.3718V5.60683C32.5726 5.45725 32.5245 5.33438 32.4284 5.23821C32.3322 5.14204 32.2093 5.09396 32.0597 5.09396H15.611C15.4615 5.09396 15.3386 5.14204 15.2424 5.23821C15.1462 5.33438 15.0982 5.45725 15.0982 5.60683V30.3718C15.0982 30.5214 15.1462 30.6443 15.2424 30.7404C15.3386 30.8366 15.4615 30.8846 15.611 30.8846ZM15.611 32.9786C14.9045 32.9786 14.2962 32.7208 13.7863 32.2051C13.2763 31.6894 13.0213 31.0783 13.0213 30.3718V5.60683C13.0213 4.90028 13.2763 4.28917 13.7863 3.7735C14.2962 3.25783 14.9045 3 15.611 3H32.0597C32.7663 3 33.3774 3.25783 33.8931 3.7735C34.4087 4.28917 34.6666 4.90028 34.6666 5.60683V30.3718C34.6666 31.0783 34.4087 31.6894 33.8931 32.2051C33.3774 32.7208 32.7663 32.9786 32.0597 32.9786H15.611ZM23.8395 13.3867C24.6135 13.3867 25.2682 13.123 25.8036 12.5956C26.339 12.0682 26.6068 11.4109 26.6068 10.6239C26.6068 9.86415 26.3386 9.21946 25.8022 8.68979C25.2659 8.1601 24.6132 7.89525 23.844 7.89525C23.0842 7.89525 22.4395 8.1601 21.9098 8.68979C21.3802 9.21946 21.1153 9.86415 21.1153 10.6239C21.1153 11.4109 21.3797 12.0682 21.9085 12.5956C22.4374 13.123 23.081 13.3867 23.8395 13.3867ZM23.861 27.9017C25.3558 27.9017 26.6266 27.3778 27.6734 26.3301C28.7201 25.2824 29.2435 24.0007 29.2435 22.485C29.2435 20.9694 28.7201 19.6877 27.6734 18.64C26.6266 17.5923 25.3558 17.0684 23.861 17.0684C22.3557 17.0684 21.0709 17.5923 20.0066 18.64C18.9423 19.6877 18.4102 20.9694 18.4102 22.485C18.4102 24.0007 18.9423 25.2824 20.0066 26.3301C21.0709 27.3778 22.3557 27.9017 23.861 27.9017ZM23.8191 25.8077C22.899 25.8077 22.1165 25.4846 21.4716 24.8383C20.8266 24.192 20.5042 23.4098 20.5042 22.4916C20.5042 21.5734 20.8263 20.789 21.4707 20.1383C22.1151 19.4877 22.8961 19.1624 23.8138 19.1624C24.7374 19.1624 25.5243 19.4855 26.1744 20.1318C26.8245 20.7781 27.1495 21.5603 27.1495 22.4785C27.1495 23.3967 26.8245 24.1811 26.1744 24.8318C25.5243 25.4824 24.7392 25.8077 23.8191 25.8077ZM23.8803 37.9999H10.6068C9.90028 37.9999 9.28917 37.7421 8.7735 37.2264C8.25783 36.7108 8 36.0996 8 35.3931V8.85471H10.094V35.3931C10.094 35.5427 10.142 35.6655 10.2382 35.7617C10.3344 35.8579 10.4572 35.906 10.6068 35.906H23.8803V37.9999Z" fill="#1C1B1F"/>
</g>
</svg>
