<svg width="41" height="41" viewBox="0 0 41 41" fill="none" xmlns="http://www.w3.org/2000/svg">
<mask id="mask0_199_2505" style="mask-type:alpha" maskUnits="userSpaceOnUse" x="0" y="0" width="41" height="41">
<rect x="0.5" y="0.5" width="40" height="40" fill="#D9D9D9"/>
</mask>
<g mask="url(#mask0_199_2505)">
<path d="M28.7265 36.3333H12.2736C11.5622 36.3333 10.9499 36.0767 10.4367 35.5634C9.92339 35.0502 9.66675 34.4379 9.66675 33.7265V7.27358C9.66675 6.56222 9.92339 5.94992 10.4367 5.43667C10.9499 4.92339 11.5622 4.66675 12.2736 4.66675H28.7265C29.4379 4.66675 30.0502 4.92339 30.5634 5.43667C31.0767 5.94992 31.3333 6.56222 31.3333 7.27358V33.7265C31.3333 34.4379 31.0767 35.0502 30.5634 35.5634C30.0502 36.0767 29.4379 36.3333 28.7265 36.3333ZM28.7265 34.2394C28.8761 34.2394 28.999 34.1913 29.0951 34.0951C29.1913 33.999 29.2394 33.8761 29.2394 33.7265V7.27358C29.2394 7.124 29.1913 7.00112 29.0951 6.90496C28.999 6.80879 28.8761 6.76071 28.7265 6.76071H12.2736C12.124 6.76071 12.0011 6.80879 11.905 6.90496C11.8088 7.00112 11.7607 7.124 11.7607 7.27358V33.7265C11.7607 33.8761 11.8088 33.999 11.905 34.0951C12.0011 34.1913 12.124 34.2394 12.2736 34.2394H28.7265ZM20.5253 15.1005C21.3397 15.1005 22.0308 14.8137 22.5988 14.2402C23.1669 13.6668 23.4509 12.9747 23.4509 12.1639C23.4509 11.3531 23.1663 10.6619 22.5973 10.0903C22.0282 9.51875 21.3339 9.23296 20.5143 9.23296C19.7035 9.23296 19.0141 9.51969 18.4461 10.0932C17.8781 10.6666 17.5941 11.3588 17.5941 12.1695C17.5941 12.9803 17.879 13.6715 18.449 14.2431C19.0188 14.8147 19.711 15.1005 20.5253 15.1005ZM20.5 31.797C22.2572 31.797 23.7459 31.1868 24.9664 29.9664C26.1868 28.7459 26.797 27.2572 26.797 25.5C26.797 23.7429 26.1868 22.2542 24.9664 21.0337C23.7459 19.8133 22.2572 19.2031 20.5 19.2031C18.7429 19.2031 17.2542 19.8133 16.0337 21.0337C14.8133 22.2542 14.2031 23.7429 14.2031 25.5C14.2031 27.2572 14.8133 28.7459 16.0337 29.9664C17.2542 31.1868 18.7429 31.797 20.5 31.797ZM20.4968 29.703C19.3401 29.703 18.351 29.2912 17.5294 28.4675C16.7078 27.6438 16.297 26.6536 16.297 25.4968C16.297 24.3401 16.7089 23.351 17.5326 22.5294C18.3563 21.7078 19.3465 21.297 20.5032 21.297C21.6599 21.297 22.6491 21.7089 23.4707 22.5326C24.2922 23.3563 24.703 24.3465 24.703 25.5033C24.703 26.6599 24.2912 27.6491 23.4675 28.4707C22.6438 29.2923 21.6536 29.703 20.4968 29.703Z" fill="#1C1B1F"/>
</g>
</svg>
