<svg width="41" height="41" viewBox="0 0 41 41" fill="none" xmlns="http://www.w3.org/2000/svg">
<mask id="mask0_199_2511" style="mask-type:alpha" maskUnits="userSpaceOnUse" x="0" y="0" width="41" height="41">
<rect x="0.5" y="0.5" width="40" height="40" fill="#D9D9D9"/>
</mask>
<g mask="url(#mask0_199_2511)">
<path d="M13.7735 13.6304V8.99579H15.8674V13.6304H13.7735ZM13.7735 27.9102V20.2009H15.8674V27.9102H13.7735ZM10.6068 36.3333C9.89281 36.3333 9.27983 36.0774 8.76792 35.5654C8.25597 35.0535 8 34.4405 8 33.7265V7.27358C8 6.55955 8.25597 5.94658 8.76792 5.43467C9.27983 4.92272 9.89281 4.66675 10.6068 4.66675H30.3931C31.1071 4.66675 31.7201 4.92272 32.232 5.43467C32.7439 5.94658 32.9999 6.55955 32.9999 7.27358V33.7265C32.9999 34.4405 32.7439 35.0535 32.232 35.5654C31.7201 36.0774 31.1071 36.3333 30.3931 36.3333H10.6068ZM10.6068 34.2394H30.3931C30.5427 34.2394 30.6655 34.1913 30.7617 34.0951C30.8579 33.999 30.906 33.8761 30.906 33.7265V17.9594H10.094V33.7265C10.094 33.8761 10.142 33.999 10.2382 34.0951C10.3344 34.1913 10.4572 34.2394 10.6068 34.2394ZM10.094 15.8655H30.906V7.27358C30.906 7.124 30.8579 7.00112 30.7617 6.90496C30.6655 6.80879 30.5427 6.76071 30.3931 6.76071H10.6068C10.4572 6.76071 10.3344 6.80879 10.2382 6.90496C10.142 7.00112 10.094 7.124 10.094 7.27358V15.8655Z" fill="#1C1B1F"/>
</g>
</svg>
