<svg width="41" height="41" viewBox="0 0 41 41" fill="none" xmlns="http://www.w3.org/2000/svg">
<mask id="mask0_199_2445" style="mask-type:alpha" maskUnits="userSpaceOnUse" x="0" y="0" width="41" height="41">
<rect x="0.5" y="0.5" width="40" height="40" fill="#D9D9D9"/>
</mask>
<g mask="url(#mask0_199_2445)">
<path d="M20.5 34.6666C18.5449 34.6666 16.7084 34.2954 14.9906 33.5529C13.2727 32.8105 11.7717 31.7971 10.4873 30.5127C9.20293 29.2283 8.18953 27.7273 7.44708 26.0094C6.70461 24.2916 6.33337 22.4551 6.33337 20.5C6.33337 19.3748 6.46158 18.289 6.718 17.2426C6.97442 16.1963 7.3398 15.2027 7.81417 14.2618C8.2885 13.3209 8.859 12.4432 9.52567 11.6288C10.1923 10.8143 10.9416 10.0813 11.7735 9.42954L22.4508 20.1069L20.9765 21.5983L11.6945 12.3162C10.723 13.381 9.93557 14.5963 9.33229 15.962C8.72899 17.3278 8.42733 18.8404 8.42733 20.5C8.42733 23.8476 9.6024 26.6966 11.9525 29.047C14.3027 31.3974 17.1513 32.5727 20.4985 32.5727C23.8457 32.5727 26.6948 31.3974 29.046 29.047C31.3971 26.6966 32.5727 23.8476 32.5727 20.5C32.5727 17.406 31.5356 14.6957 29.4615 12.3691C27.3875 10.0425 24.708 8.74215 21.423 8.46796V12.1837H19.3291V6.33337H20.4551C22.4051 6.33337 24.2462 6.70553 25.9785 7.44983C27.7107 8.19414 29.22 9.20543 30.5064 10.4837C31.7927 11.762 32.8076 13.2622 33.5512 14.9843C34.2948 16.7063 34.6666 18.5449 34.6666 20.5C34.6666 22.4551 34.2954 24.2916 33.5529 26.0094C32.8105 27.7273 31.7971 29.2283 30.5127 30.5127C29.2283 31.7971 27.7272 32.8105 26.0094 33.5529C24.2916 34.2954 22.4551 34.6666 20.5 34.6666ZM11.7625 21.8953C11.3539 21.8953 11.0132 21.758 10.7404 21.4833C10.4676 21.2086 10.3312 20.8683 10.3312 20.4622C10.3312 20.0562 10.467 19.7153 10.7386 19.4395C11.0102 19.1636 11.3503 19.0257 11.7589 19.0257C12.1675 19.0257 12.5082 19.163 12.781 19.4377C13.0538 19.7123 13.1902 20.0526 13.1902 20.4587C13.1902 20.8647 13.0544 21.2056 12.7827 21.4815C12.5112 21.7574 12.1711 21.8953 11.7625 21.8953ZM20.4622 30.6517C20.0562 30.6517 19.7153 30.5159 19.4395 30.2443C19.1636 29.9727 19.0257 29.6326 19.0257 29.224C19.0257 28.8154 19.1629 28.4729 19.4373 28.1966C19.7118 27.9203 20.0519 27.7821 20.4576 27.7821C20.8634 27.7821 21.2044 27.92 21.4807 28.1959C21.7571 28.4718 21.8953 28.8137 21.8953 29.2215C21.8953 29.6294 21.758 29.9697 21.4833 30.2425C21.2086 30.5153 20.8683 30.6517 20.4622 30.6517ZM29.224 21.8953C28.8154 21.8953 28.4729 21.7574 28.1966 21.4818C27.9203 21.2061 27.7821 20.8644 27.7821 20.4569C27.7821 20.0524 27.92 19.7128 28.1959 19.4379C28.4718 19.1631 28.8137 19.0257 29.2215 19.0257C29.6294 19.0257 29.9697 19.163 30.2425 19.4377C30.5153 19.7123 30.6517 20.0526 30.6517 20.4587C30.6517 20.8647 30.5159 21.2056 30.2443 21.4815C29.9727 21.7574 29.6326 21.8953 29.224 21.8953Z" fill="#1C1B1F"/>
</g>
</svg>
