<svg width="41" height="41" viewBox="0 0 41 41" fill="none" xmlns="http://www.w3.org/2000/svg">
<mask id="mask0_199_2517" style="mask-type:alpha" maskUnits="userSpaceOnUse" x="0" y="0" width="41" height="41">
<rect x="0.5" y="0.5" width="40" height="40" fill="#D9D9D9"/>
</mask>
<g mask="url(#mask0_199_2517)">
<path d="M8.94021 34.6665C8.22387 34.6665 7.61032 34.4111 7.09954 33.9003C6.58876 33.3896 6.33337 32.776 6.33337 32.0597V8.94009C6.33337 8.22375 6.58876 7.6102 7.09954 7.09942C7.61032 6.58864 8.22387 6.33325 8.94021 6.33325H32.0598C32.7761 6.33325 33.3897 6.58864 33.9005 7.09942C34.4112 7.6102 34.6666 8.22375 34.6666 8.94009V32.0597C34.6666 32.776 34.4112 33.3896 33.9005 33.9003C33.3897 34.4111 32.7761 34.6665 32.0598 34.6665H8.94021ZM8.42733 19.8802V32.0597C8.42733 32.1879 8.48076 32.3054 8.58762 32.4123C8.69446 32.5191 8.81199 32.5725 8.94021 32.5725H32.0598C32.188 32.5725 32.3055 32.5191 32.4124 32.4123C32.5192 32.3054 32.5727 32.1879 32.5727 32.0597V19.8802H27.797V27.7968H13.203V19.8802H8.42733ZM15.297 25.7029H25.703V19.8802H15.297V25.7029ZM8.42733 17.7863H32.5727V8.94009C32.5727 8.81186 32.5192 8.69434 32.4124 8.5875C32.3055 8.48064 32.188 8.42721 32.0598 8.42721H8.94021C8.81199 8.42721 8.69446 8.48064 8.58762 8.5875C8.48076 8.69434 8.42733 8.81186 8.42733 8.94009V17.7863ZM13.7962 13.7905C13.4442 13.7905 13.1451 13.6658 12.899 13.4163C12.653 13.1669 12.5299 12.8661 12.5299 12.5141C12.5299 12.162 12.6547 11.863 12.9041 11.6169C13.1536 11.3708 13.4543 11.2478 13.8063 11.2478C14.1584 11.2478 14.4574 11.3725 14.7035 11.622C14.9496 11.8714 15.0726 12.1722 15.0726 12.5242C15.0726 12.8762 14.9479 13.1753 14.6985 13.4214C14.449 13.6675 14.1483 13.7905 13.7962 13.7905ZM20.4629 13.7905C20.1108 13.7905 19.8118 13.6658 19.5657 13.4163C19.3196 13.1669 19.1966 12.8661 19.1966 12.5141C19.1966 12.162 19.3213 11.863 19.5708 11.6169C19.8202 11.3708 20.121 11.2478 20.473 11.2478C20.825 11.2478 21.1241 11.3725 21.3702 11.622C21.6162 11.8714 21.7393 12.1722 21.7393 12.5242C21.7393 12.8762 21.6146 13.1753 21.3651 13.4214C21.1157 13.6675 20.8149 13.7905 20.4629 13.7905ZM27.1295 13.7905C26.7775 13.7905 26.4785 13.6658 26.2324 13.4163C25.9863 13.1669 25.8633 12.8661 25.8633 12.5141C25.8633 12.162 25.988 11.863 26.2375 11.6169C26.4869 11.3708 26.7876 11.2478 27.1397 11.2478C27.4917 11.2478 27.7907 11.3725 28.0368 11.622C28.2829 11.8714 28.406 12.1722 28.406 12.5242C28.406 12.8762 28.2812 13.1753 28.0318 13.4214C27.7823 13.6675 27.4816 13.7905 27.1295 13.7905Z" fill="#1C1B1F"/>
</g>
</svg>
