<svg width="41" height="41" viewBox="0 0 41 41" fill="none" xmlns="http://www.w3.org/2000/svg">
<mask id="mask0_206_2738" style="mask-type:alpha" maskUnits="userSpaceOnUse" x="0" y="0" width="41" height="41">
<rect x="0.5" y="0.5" width="40" height="40" fill="#D9D9D9"/>
</mask>
<g mask="url(#mask0_206_2738)">
<path d="M6.10901 34.6666V25.5H8.20297V34.6666H6.10901ZM13.8697 20.0727H30.4637L27.2265 9.26075H17.1175L13.8697 20.0727ZM10.5107 31.1303V29.0363H18.8333C19.4722 29.0363 20.013 28.815 20.4557 28.3723C20.8984 27.9297 21.1197 27.3889 21.1197 26.75V22.1667H12.7821C12.3441 22.1667 11.9969 21.9881 11.7405 21.6309C11.4841 21.2737 11.4246 20.8907 11.5621 20.4818L15.2706 8.08242C15.3516 7.79892 15.5043 7.57543 15.7287 7.41196C15.953 7.24851 16.2119 7.16679 16.5054 7.16679H27.828C28.1214 7.16679 28.3803 7.24851 28.6047 7.41196C28.829 7.57543 28.9817 7.79892 29.0628 8.08242L32.7713 20.4818C32.9088 20.8907 32.8493 21.2737 32.5929 21.6309C32.3365 21.9881 31.9892 22.1667 31.5512 22.1667H23.2136V26.7481C23.2136 27.968 22.7887 29.0033 21.9388 29.8541C21.0889 30.7049 20.0538 31.1303 18.8333 31.1303H10.5107Z" fill="#1C1B1F"/>
</g>
</svg>
