<svg width="41" height="41" viewBox="0 0 41 41" fill="none" xmlns="http://www.w3.org/2000/svg">
<mask id="mask0_199_2379" style="mask-type:alpha" maskUnits="userSpaceOnUse" x="0" y="0" width="41" height="41">
<rect x="0.5" y="0.5" width="40" height="40" fill="#D9D9D9"/>
</mask>
<g mask="url(#mask0_199_2379)">
<path d="M7.58337 34.923V26.1624H33.4166V34.923H31.3227V28.2563H9.67733V34.923H7.58337ZM8.21171 23.3418C7.68882 23.3418 7.24504 23.1588 6.88037 22.7928C6.51571 22.4268 6.33337 21.9824 6.33337 21.4595C6.33337 20.9366 6.51639 20.4929 6.88242 20.1282C7.24842 19.7636 7.69285 19.5812 8.21571 19.5812C8.73857 19.5812 9.18233 19.7642 9.547 20.1302C9.91167 20.4962 10.094 20.9407 10.094 21.4635C10.094 21.9864 9.911 22.4302 9.545 22.7948C9.179 23.1595 8.73457 23.3418 8.21171 23.3418ZM12.8077 23.4487V8.77993C12.8077 8.06857 13.0644 7.45625 13.5776 6.94297C14.0909 6.42972 14.7032 6.1731 15.4145 6.1731H25.5855C26.2968 6.1731 26.9091 6.42972 27.4224 6.94297C27.9356 7.45625 28.1923 8.06857 28.1923 8.77993V23.4487H12.8077ZM32.7843 23.3418C32.2614 23.3418 31.8177 23.1588 31.453 22.7928C31.0883 22.4268 30.906 21.9824 30.906 21.4595C30.906 20.9366 31.089 20.4929 31.455 20.1282C31.821 19.7636 32.2654 19.5812 32.7883 19.5812C33.3112 19.5812 33.755 19.7642 34.1196 20.1302C34.4843 20.4962 34.6666 20.9407 34.6666 21.4635C34.6666 21.9864 34.4836 22.4302 34.1176 22.7948C33.7516 23.1595 33.3072 23.3418 32.7843 23.3418ZM14.9017 21.3547H26.0983V8.77993C26.0983 8.63032 26.0502 8.50744 25.9541 8.4113C25.8579 8.31514 25.735 8.26705 25.5855 8.26705H15.4145C15.265 8.26705 15.1421 8.31514 15.0459 8.4113C14.9498 8.50744 14.9017 8.63032 14.9017 8.77993V21.3547Z" fill="#1C1B1F"/>
</g>
</svg>
