<svg width="41" height="41" viewBox="0 0 41 41" fill="none" xmlns="http://www.w3.org/2000/svg">
<mask id="mask0_206_2744" style="mask-type:alpha" maskUnits="userSpaceOnUse" x="0" y="0" width="41" height="41">
<rect x="0.5" y="0.5" width="40" height="40" fill="#D9D9D9"/>
</mask>
<g mask="url(#mask0_206_2744)">
<path d="M20.5 33.8973C18.911 33.8973 17.5647 33.3455 16.461 32.2419C15.3574 31.1383 14.8056 29.7919 14.8056 28.2029H8.42733C7.86539 28.2029 7.37592 27.9944 6.95892 27.5774C6.54189 27.1604 6.33337 26.6709 6.33337 26.109C6.33337 22.265 7.5841 18.9566 10.0855 16.1838C12.587 13.411 15.7095 11.8996 19.453 11.6496V6.65392H21.547V11.6496C25.2905 11.8996 28.413 13.411 30.9145 16.1838C33.4159 18.9566 34.6666 22.265 34.6666 26.109C34.6666 26.6709 34.4581 27.1604 34.0411 27.5774C33.6241 27.9944 33.1346 28.2029 32.5727 28.2029H26.1944C26.1944 29.7919 25.6426 31.1383 24.539 32.2419C23.4353 33.3455 22.089 33.8973 20.5 33.8973ZM8.42733 26.109H32.5727C32.5727 22.6688 31.3976 19.745 29.0475 17.3376C26.6973 14.9302 23.8487 13.7265 20.5015 13.7265C17.1543 13.7265 14.3052 14.9302 11.954 17.3376C9.6029 19.745 8.42733 22.6688 8.42733 26.109ZM20.504 31.8034C21.5035 31.8034 22.3528 31.4529 23.0518 30.752C23.7509 30.051 24.1004 29.2013 24.1004 28.2029H16.8996C16.8996 29.2051 17.2504 30.0557 17.9522 30.7548C18.6539 31.4538 19.5045 31.8034 20.504 31.8034Z" fill="#1C1B1F"/>
</g>
</svg>
