<svg width="41" height="41" viewBox="0 0 41 41" fill="none" xmlns="http://www.w3.org/2000/svg">
<mask id="mask0_199_2541" style="mask-type:alpha" maskUnits="userSpaceOnUse" x="0" y="0" width="41" height="41">
<rect x="0.5" y="0.5" width="40" height="40" fill="#D9D9D9"/>
</mask>
<g mask="url(#mask0_199_2541)">
<path d="M7.27358 32.9999C6.55564 32.9999 5.94168 32.7449 5.43171 32.235C4.92173 31.725 4.66675 31.111 4.66675 30.3931V10.6068C4.66675 9.88889 4.92173 9.27493 5.43171 8.76496C5.94168 8.25499 6.55564 8 7.27358 8H33.7265C34.4444 8 35.0584 8.25499 35.5684 8.76496C36.0783 9.27493 36.3333 9.88889 36.3333 10.6068V30.3931C36.3333 31.111 36.0783 31.725 35.5684 32.235C35.0584 32.7449 34.4444 32.9999 33.7265 32.9999H7.27358ZM7.27358 30.906H25.0727V10.094H7.27358C7.14536 10.094 7.02783 10.1474 6.921 10.2543C6.81414 10.3611 6.76071 10.4786 6.76071 10.6068V30.3931C6.76071 30.5213 6.81414 30.6388 6.921 30.7457C7.02783 30.8525 7.14536 30.906 7.27358 30.906ZM27.1667 30.906H33.7265C33.8547 30.906 33.9722 30.8525 34.0791 30.7457C34.1859 30.6388 34.2394 30.5213 34.2394 30.3931V10.6068C34.2394 10.4786 34.1859 10.3611 34.0791 10.2543C33.9722 10.1474 33.8547 10.094 33.7265 10.094H27.1667V30.906ZM29.4958 14.8375H31.9103V12.423H29.4958V14.8375ZM30.703 21.7713C31.0585 21.7713 31.3592 21.6454 31.6053 21.3936C31.8513 21.1418 31.9744 20.844 31.9744 20.5C31.9744 20.1445 31.8513 19.8438 31.6053 19.5977C31.3592 19.3517 31.0585 19.2286 30.703 19.2286C30.359 19.2286 30.0611 19.3517 29.8093 19.5977C29.5576 19.8438 29.4317 20.1445 29.4317 20.5C29.4317 20.844 29.5576 21.1418 29.8093 21.3936C30.0611 21.6454 30.359 21.7713 30.703 21.7713ZM30.703 28.641C31.0585 28.641 31.3592 28.5151 31.6053 28.2633C31.8513 28.0115 31.9744 27.7136 31.9744 27.3696C31.9744 27.0142 31.8513 26.7135 31.6053 26.4674C31.3592 26.2213 31.0585 26.0983 30.703 26.0983C30.359 26.0983 30.0611 26.2213 29.8093 26.4674C29.5576 26.7135 29.4317 27.0142 29.4317 27.3696C29.4317 27.7136 29.5576 28.0115 29.8093 28.2633C30.0611 28.5151 30.359 28.641 30.703 28.641ZM18.0001 26.5469C17.4274 26.5469 16.9146 26.4303 16.4616 26.197C16.0086 25.9638 15.6215 25.745 15.3003 25.5405C15.0417 25.3689 14.798 25.2159 14.569 25.0817C14.34 24.9474 14.0948 24.8803 13.8334 24.8803C13.5385 24.8803 13.2567 24.9625 12.9878 25.127C12.7189 25.2916 12.4783 25.4629 12.2661 25.641L10.7501 24.1666C11.0671 23.876 11.4916 23.5733 12.0236 23.2585C12.5557 22.9437 13.1589 22.7863 13.8334 22.7863C14.4061 22.7863 14.9137 22.9046 15.3564 23.141C15.799 23.3775 16.1845 23.5979 16.5129 23.8023C16.807 24.0018 17.0718 24.1601 17.3072 24.2773C17.5426 24.3944 17.7736 24.453 18.0001 24.453C18.2949 24.453 18.5768 24.3707 18.8457 24.2062C19.1146 24.0417 19.3551 23.8704 19.5674 23.6923L21.0834 25.1666C20.7664 25.4572 20.3419 25.7599 19.8099 26.0747C19.2778 26.3895 18.6746 26.5469 18.0001 26.5469ZM18.0001 18.2136C17.4274 18.2136 16.9146 18.097 16.4616 17.8637C16.0086 17.6305 15.6215 17.4116 15.3003 17.2072C15.0417 17.0355 14.798 16.8826 14.569 16.7483C14.34 16.6141 14.0948 16.5469 13.8334 16.5469C13.5385 16.5469 13.2567 16.6292 12.9878 16.7937C12.7189 16.9582 12.4783 17.1295 12.2661 17.3076L10.7501 15.8333C11.0671 15.5427 11.4916 15.24 12.0236 14.9252C12.5557 14.6104 13.1589 14.453 13.8334 14.453C14.4061 14.453 14.9137 14.5712 15.3564 14.8077C15.799 15.0441 16.1845 15.2646 16.5129 15.469C16.807 15.6684 17.0718 15.8268 17.3072 15.9439C17.5426 16.0611 17.7736 16.1197 18.0001 16.1197C18.2949 16.1197 18.5768 16.0374 18.8457 15.8729C19.1146 15.7083 19.3551 15.537 19.5674 15.359L21.0834 16.8333C20.7664 17.1239 20.3419 17.4266 19.8099 17.7414C19.2778 18.0562 18.6746 18.2136 18.0001 18.2136Z" fill="#1C1B1F"/>
</g>
</svg>
