<svg width="41" height="41" viewBox="0 0 41 41" fill="none" xmlns="http://www.w3.org/2000/svg">
<mask id="mask0_199_2529" style="mask-type:alpha" maskUnits="userSpaceOnUse" x="0" y="0" width="41" height="41">
<rect x="0.5" y="0.5" width="40" height="40" fill="#D9D9D9"/>
</mask>
<g mask="url(#mask0_199_2529)">
<path d="M8.42733 17.5084V32.0597C8.42733 32.1879 8.48076 32.3054 8.58762 32.4123C8.69446 32.5191 8.81199 32.5725 8.94021 32.5725H32.0598C32.188 32.5725 32.3055 32.5191 32.4124 32.4123C32.5192 32.3054 32.5727 32.1879 32.5727 32.0597V17.5084H8.42733ZM8.42733 15.4144H32.5727V8.94009C32.5727 8.81186 32.5192 8.69434 32.4124 8.5875C32.3055 8.48064 32.188 8.42721 32.0598 8.42721H8.94021C8.81199 8.42721 8.69446 8.48064 8.58762 8.5875C8.48076 8.69434 8.42733 8.81186 8.42733 8.94009V15.4144ZM20.4967 29.5362C19.7418 29.5362 19.1013 29.2697 18.5753 28.7368C18.0494 28.2039 17.7864 27.5552 17.7864 26.7905C17.7864 26.0832 18.0072 25.299 18.4487 24.4379C18.8903 23.5768 19.5741 22.5412 20.5 21.3311C21.4259 22.559 22.1097 23.5991 22.5512 24.4513C22.9928 25.3035 23.2136 26.0832 23.2136 26.7905C23.2136 27.5552 22.9495 28.2039 22.4213 28.7368C21.8931 29.2697 21.2516 29.5362 20.4967 29.5362ZM29.2393 13.0319C29.594 13.0319 29.8946 12.9087 30.141 12.6623C30.3874 12.4158 30.5107 12.1152 30.5107 11.7605C30.5107 11.4058 30.3874 11.1053 30.141 10.8589C29.8946 10.6124 29.594 10.4892 29.2393 10.4892C28.8846 10.4892 28.5841 10.6124 28.3376 10.8589C28.0912 11.1053 27.968 11.4058 27.968 11.7605C27.968 12.1152 28.0912 12.4158 28.3376 12.6623C28.5841 12.9087 28.8846 13.0319 29.2393 13.0319ZM8.94021 34.6665C8.22387 34.6665 7.61032 34.4111 7.09954 33.9003C6.58876 33.3896 6.33337 32.776 6.33337 32.0597V8.94009C6.33337 8.22375 6.58876 7.6102 7.09954 7.09942C7.61032 6.58864 8.22387 6.33325 8.94021 6.33325H32.0598C32.7761 6.33325 33.3897 6.58864 33.9005 7.09942C34.4112 7.6102 34.6666 8.22375 34.6666 8.94009V32.0597C34.6666 32.776 34.4112 33.3896 33.9005 33.9003C33.3897 34.4111 32.7761 34.6665 32.0598 34.6665H8.94021Z" fill="#1C1B1F"/>
</g>
</svg>
