<svg width="41" height="41" viewBox="0 0 41 41" fill="none" xmlns="http://www.w3.org/2000/svg">
<mask id="mask0_199_2469" style="mask-type:alpha" maskUnits="userSpaceOnUse" x="0" y="0" width="41" height="41">
<rect x="0.5" y="0.5" width="40" height="40" fill="#D9D9D9"/>
</mask>
<g mask="url(#mask0_199_2469)">
<path d="M15.2181 34.6666V33.2884L18.5343 29.9551H7.27358C6.55725 29.9551 5.94369 29.6997 5.43291 29.1889C4.92214 28.6782 4.66675 28.0646 4.66675 27.3483V8.94021C4.66675 8.22388 4.92214 7.61032 5.43291 7.09954C5.94369 6.58876 6.55725 6.33337 7.27358 6.33337H33.7265C34.4428 6.33337 35.0564 6.58876 35.5672 7.09954C36.0779 7.61032 36.3333 8.22388 36.3333 8.94021V27.3483C36.3333 28.0646 36.0779 28.6782 35.5672 29.1889C35.0564 29.6997 34.4428 29.9551 33.7265 29.9551H22.4658L25.782 33.2884V34.6666H15.2181ZM6.76071 24.5963H34.2394V8.94021C34.2394 8.81199 34.1859 8.69446 34.0791 8.58763C33.9722 8.48077 33.8547 8.42733 33.7265 8.42733H7.27358C7.14536 8.42733 7.02783 8.48077 6.921 8.58763C6.81414 8.69446 6.76071 8.81199 6.76071 8.94021V24.5963Z" fill="#1C1B1F"/>
</g>
</svg>
