<svg width="41" height="41" viewBox="0 0 41 41" fill="none" xmlns="http://www.w3.org/2000/svg">
<mask id="mask0_199_2439" style="mask-type:alpha" maskUnits="userSpaceOnUse" x="0" y="0" width="41" height="41">
<rect x="0.5" y="0.5" width="40" height="40" fill="#D9D9D9"/>
</mask>
<g mask="url(#mask0_199_2439)">
<path d="M8.94021 34.6666C8.22387 34.6666 7.61032 34.4112 7.09954 33.9005C6.58876 33.3897 6.33337 32.7761 6.33337 32.0598V8.94021C6.33337 8.23365 6.58876 7.62254 7.09954 7.10688C7.61032 6.59121 8.22387 6.33337 8.94021 6.33337H32.0598C32.7663 6.33337 33.3775 6.59121 33.8931 7.10688C34.4088 7.62254 34.6666 8.23365 34.6666 8.94021V32.0598C34.6666 32.7761 34.4088 33.3897 33.8931 33.9005C33.3775 34.4112 32.7663 34.6666 32.0598 34.6666H8.94021ZM8.94021 32.5727H14.7276V24.2073H13.9797C13.604 24.2073 13.2875 24.0786 13.0302 23.8213C12.7729 23.564 12.6442 23.2475 12.6442 22.8718V8.42733H8.94021C8.79062 8.42733 8.66775 8.47542 8.57158 8.57158C8.47542 8.66775 8.42733 8.79063 8.42733 8.94021V32.0598C8.42733 32.2094 8.47542 32.3323 8.57158 32.4284C8.66775 32.5246 8.79062 32.5727 8.94021 32.5727ZM26.2724 32.5727H32.0598C32.2094 32.5727 32.3323 32.5246 32.4284 32.4284C32.5246 32.3323 32.5727 32.2094 32.5727 32.0598V8.94021C32.5727 8.79063 32.5246 8.66775 32.4284 8.57158C32.3323 8.47542 32.2094 8.42733 32.0598 8.42733H28.3557V22.8718C28.3557 23.2475 28.2271 23.564 27.9698 23.8213C27.7125 24.0786 27.396 24.2073 27.0203 24.2073H26.2724V32.5727ZM16.3087 32.5727H24.6912V24.2073H23.9434C23.5607 24.2073 23.2425 24.0786 22.9887 23.8213C22.7348 23.564 22.6079 23.2475 22.6079 22.8718V8.42733H18.3921V22.8718C18.3921 23.2475 18.2652 23.564 18.0113 23.8213C17.7575 24.0786 17.4393 24.2073 17.0566 24.2073H16.3087V32.5727Z" fill="#1C1B1F"/>
</g>
</svg>
