<svg width="41" height="41" viewBox="0 0 41 41" fill="none" xmlns="http://www.w3.org/2000/svg">
<mask id="mask0_199_2493" style="mask-type:alpha" maskUnits="userSpaceOnUse" x="0" y="0" width="41" height="41">
<rect x="0.5" y="0.5" width="40" height="40" fill="#D9D9D9"/>
</mask>
<g mask="url(#mask0_199_2493)">
<path d="M7.27358 36.3333C6.55725 36.3333 5.94369 36.0779 5.43291 35.5671C4.92214 35.0563 4.66675 34.4428 4.66675 33.7264V14.1261C4.66675 13.4409 4.88951 12.8342 5.33504 12.3061C5.78057 11.778 6.32171 11.3875 6.95846 11.1346L25.9637 3.44452L26.6495 5.22652L11.5063 11.3334H33.7265C34.4428 11.3334 35.0564 11.5887 35.5672 12.0995C36.0779 12.6103 36.3333 13.2239 36.3333 13.9402V33.7264C36.3333 34.4428 36.0779 35.0563 35.5672 35.5671C35.0564 36.0779 34.4428 36.3333 33.7265 36.3333H7.27358ZM7.27358 34.2393H33.7265C33.8547 34.2393 33.9722 34.1859 34.0791 34.079C34.1859 33.9722 34.2394 33.8547 34.2394 33.7264V21.579H6.76071V33.7264C6.76071 33.8547 6.81414 33.9722 6.921 34.079C7.02783 34.1859 7.14536 34.2393 7.27358 34.2393ZM13.6944 31.5918C14.7493 31.5918 15.6427 31.2238 16.3745 30.4878C17.1063 29.7517 17.4722 28.8563 17.4722 27.8014C17.4722 26.7464 17.1042 25.8531 16.3682 25.1212C15.6322 24.3894 14.7367 24.0235 13.6818 24.0235C12.6269 24.0235 11.7335 24.3915 11.0017 25.1275C10.2698 25.8635 9.90391 26.759 9.90391 27.8139C9.90391 28.8689 10.2719 29.7622 11.008 30.4941C11.744 31.2259 12.6395 31.5918 13.6944 31.5918ZM6.76071 19.4851H27.9894V16.6859H30.0833V19.4851H34.2394V13.9402C34.2394 13.812 34.1859 13.6944 34.0791 13.5876C33.9722 13.4807 33.8547 13.4273 33.7265 13.4273H7.27358C7.14536 13.4273 7.02783 13.4807 6.921 13.5876C6.81414 13.6944 6.76071 13.812 6.76071 13.9402V19.4851Z" fill="#1C1B1F"/>
</g>
</svg>
