<svg width="41" height="41" viewBox="0 0 41 41" fill="none" xmlns="http://www.w3.org/2000/svg">
<mask id="mask0_199_2625" style="mask-type:alpha" maskUnits="userSpaceOnUse" x="0" y="0" width="41" height="41">
<rect x="0.5" y="0.5" width="40" height="40" fill="#D9D9D9"/>
</mask>
<g mask="url(#mask0_199_2625)">
<path d="M11.1089 33.0159L13.4807 27.1025C13.6773 26.6239 13.9866 26.2398 14.4086 25.9503C14.8306 25.6608 15.3034 25.516 15.8269 25.516H19.453V18.1506C15.3447 18.0437 11.9147 17.4935 9.16295 16.4999C6.41117 15.5064 5.03528 14.3397 5.03528 13C5.03528 11.5598 6.5374 10.3371 9.54165 9.33173C12.5459 8.3264 16.1987 7.82373 20.4999 7.82373C24.7998 7.82373 28.4522 8.3264 31.4572 9.33173C34.4621 10.3371 35.9646 11.5598 35.9646 13C35.9646 14.3504 34.5843 15.5197 31.8236 16.508C29.0629 17.4962 25.6374 18.0437 21.5469 18.1506V25.516H25.173C25.6794 25.516 26.1479 25.6608 26.5784 25.9503C27.009 26.2398 27.3226 26.6239 27.5192 27.1025L29.8909 33.0159H27.7649L25.6239 27.61H15.3931L13.235 33.0159H11.1089ZM20.4999 16.0823C23.4907 16.0823 26.2377 15.791 28.7409 15.2083C31.2441 14.6257 32.969 13.8896 33.9155 13C32.969 12.1104 31.2441 11.3743 28.7409 10.7916C26.2377 10.209 23.4907 9.91769 20.4999 9.91769C17.5092 9.91769 14.7622 10.209 12.259 10.7916C9.75579 11.3743 8.03092 12.1104 7.08436 13C8.03092 13.8896 9.75579 14.6257 12.259 15.2083C14.7622 15.791 17.5092 16.0823 20.4999 16.0823Z" fill="#1C1B1F"/>
</g>
</svg>
