<svg width="41" height="41" viewBox="0 0 41 41" fill="none" xmlns="http://www.w3.org/2000/svg">
<mask id="mask0_199_2403" style="mask-type:alpha" maskUnits="userSpaceOnUse" x="0" y="0" width="41" height="41">
<rect x="0.5" y="0.5" width="40" height="40" fill="#D9D9D9"/>
</mask>
<g mask="url(#mask0_199_2403)">
<path d="M31.3985 38.4167C30.7312 38.4167 30.0725 38.3638 29.4226 38.258C28.7727 38.1522 28.1336 37.9939 27.5054 37.7831L4.29919 29.3205L4.81524 27.8312L16.6443 32.1346L19.6165 24.6079L12.9573 17.9273C12.3348 17.2899 12.0873 16.539 12.2148 15.6747C12.3423 14.8104 12.7928 14.1532 13.5663 13.7031L20.1657 9.83018C20.5325 9.61437 20.9192 9.494 21.3259 9.46906C21.7326 9.44414 22.1193 9.50325 22.4862 9.64639C22.8601 9.7803 23.1918 9.99328 23.4813 10.2853C23.7708 10.5773 23.9843 10.9206 24.1218 11.3152L24.6635 13.1068C25.1378 14.619 25.8116 15.8494 26.6849 16.7981C27.5581 17.7469 28.6963 18.457 30.0994 18.9285L30.9904 16.2298L32.4797 16.6945L30.953 21.3312C28.9587 20.8931 27.2994 20.1219 25.9749 19.0176C24.6505 17.9133 23.6293 16.3686 22.9114 14.3835L17.0406 17.8024L22.1442 23.8376L18.6111 32.8462L24.7917 35.0866L28.5748 23.5983C28.8255 23.6966 29.0688 23.7812 29.3045 23.8521C29.5403 23.9229 29.7878 23.9854 30.047 24.0396L26.2554 35.6443L27.9584 36.2447C28.5303 36.4441 29.0926 36.5925 29.6453 36.6897C30.198 36.7869 30.7824 36.8355 31.3985 36.8355C32.1478 36.8355 32.8626 36.7694 33.5428 36.6373C34.223 36.5052 34.8932 36.2938 35.5534 36.0032L36.7179 37.1998C35.8746 37.6257 35.0189 37.935 34.1507 38.1276C33.2824 38.3203 32.3651 38.4167 31.3985 38.4167ZM27.8857 10.7948C27.0851 10.7948 26.3975 10.5057 25.8227 9.92735C25.2479 9.34901 24.9605 8.65955 24.9605 7.85897C24.9605 7.0513 25.2479 6.36007 25.8227 5.78526C26.3975 5.21049 27.0851 4.9231 27.8857 4.9231C28.6934 4.9231 29.3846 5.21049 29.9594 5.78526C30.5342 6.36007 30.8216 7.0513 30.8216 7.85897C30.8216 8.65955 30.5342 9.34901 29.9594 9.92735C29.3846 10.5057 28.6934 10.7948 27.8857 10.7948Z" fill="#1C1B1F"/>
</g>
</svg>
