<svg width="41" height="41" viewBox="0 0 41 41" fill="none" xmlns="http://www.w3.org/2000/svg">
<mask id="mask0_0_952" style="mask-type:alpha" maskUnits="userSpaceOnUse" x="0" y="0" width="41" height="41">
<rect x="0.5" y="0.5" width="40" height="40" fill="#D9D9D9"/>
</mask>
<g mask="url(#mask0_0_952)">
<path d="M8.72371 34.1217C8.43349 34.1217 8.18653 34.0197 7.98283 33.8158C7.77914 33.6118 7.67729 33.3648 7.67729 33.0747V31.3632H6.96358C5.85547 31.3632 4.91783 30.9796 4.15067 30.2125C3.38356 29.4453 3 28.5077 3 27.3996V18.1752C3 16.9352 3.39371 15.9852 4.18113 15.3253C4.96857 14.6654 5.85475 14.3355 6.83967 14.3355V11.1988C6.83967 10.0941 7.20344 9.17799 7.931 8.45046C8.65856 7.72291 9.57467 7.35913 10.6793 7.35913H30.3376C31.4423 7.35913 32.3555 7.72291 33.0774 8.45046C33.7992 9.17799 34.1602 10.0941 34.1602 11.1988V14.3355C35.1908 14.3355 36.0884 14.6735 36.853 15.3494C37.6176 16.0253 37.9999 16.9672 37.9999 18.1752V27.3996C37.9999 28.5077 37.6163 29.4453 36.8491 30.2125C36.082 30.9796 35.1444 31.3632 34.0363 31.3632H33.3225V33.0747C33.3225 33.3648 33.226 33.6118 33.033 33.8158C32.84 34.0197 32.5984 34.1217 32.3082 34.1217C32.0179 34.1217 31.7708 34.0197 31.5667 33.8158C31.3627 33.6118 31.2606 33.3648 31.2606 33.0747V31.3632H9.77125V33.0747C9.77125 33.3653 9.66922 33.6125 9.46517 33.8162C9.26108 34.0199 9.01393 34.1217 8.72371 34.1217ZM6.96358 29.2692H34.0363C34.5498 29.2692 34.9898 29.086 35.3562 28.7195C35.7227 28.3531 35.9059 27.9131 35.9059 27.3996V18.1788C35.9059 17.67 35.7416 17.2512 35.4128 16.9225C35.0841 16.5938 34.6648 16.4295 34.1548 16.4295C33.6449 16.4295 33.2273 16.5938 32.9022 16.9225C32.577 17.2512 32.4145 17.6688 32.4145 18.1752V24.7521H8.58537V18.1752C8.58537 17.6688 8.42281 17.2512 8.09767 16.9225C7.77253 16.5938 7.35497 16.4295 6.845 16.4295C6.33503 16.4295 5.91569 16.5938 5.587 16.9225C5.25828 17.2512 5.09392 17.67 5.09392 18.1788V27.3996C5.09392 27.9131 5.27715 28.3531 5.64363 28.7195C6.01007 29.086 6.45006 29.2692 6.96358 29.2692ZM10.6793 22.6581H30.3205V18.1752C30.3205 17.4473 30.4922 16.8148 30.8355 16.2778C31.1788 15.7408 31.589 15.3163 32.0662 15.0043V11.1988C32.0662 10.6853 31.9019 10.2659 31.5732 9.9408C31.2445 9.61566 30.8293 9.45309 30.3277 9.45309H10.6722C10.1705 9.45309 9.75536 9.61566 9.42667 9.9408C9.09797 10.2659 8.93363 10.6853 8.93363 11.1988V15.0043C9.41082 15.3163 9.82107 15.7408 10.1644 16.2778C10.5077 16.8148 10.6793 17.4473 10.6793 18.1752V22.6581Z" fill="#1C1B1F"/>
</g>
</svg>
