<svg width="41" height="41" viewBox="0 0 41 41" fill="none" xmlns="http://www.w3.org/2000/svg">
<mask id="mask0_199_2523" style="mask-type:alpha" maskUnits="userSpaceOnUse" x="0" y="0" width="41" height="41">
<rect x="0.5" y="0.5" width="40" height="40" fill="#D9D9D9"/>
</mask>
<g mask="url(#mask0_199_2523)">
<path d="M8.94021 34.6666C8.22387 34.6666 7.61032 34.4112 7.09954 33.9005C6.58876 33.3897 6.33337 32.7761 6.33337 32.0598V8.94021C6.33337 8.22388 6.58876 7.61032 7.09954 7.09954C7.61032 6.58876 8.22387 6.33337 8.94021 6.33337H32.0598C32.7761 6.33337 33.3897 6.58876 33.9005 7.09954C34.4112 7.61032 34.6666 8.22388 34.6666 8.94021V32.0598C34.6666 32.7761 34.4112 33.3897 33.9005 33.9005C33.3897 34.4112 32.7761 34.6666 32.0598 34.6666H8.94021ZM8.94021 32.5727H32.0598C32.188 32.5727 32.3055 32.5192 32.4124 32.4124C32.5192 32.3055 32.5727 32.188 32.5727 32.0598V8.94021C32.5727 8.81199 32.5192 8.69446 32.4124 8.58763C32.3055 8.48077 32.188 8.42733 32.0598 8.42733H8.94021C8.81199 8.42733 8.69446 8.48077 8.58762 8.58763C8.48076 8.69446 8.42733 8.81199 8.42733 8.94021V32.0598C8.42733 32.188 8.48076 32.3055 8.58762 32.4124C8.69446 32.5192 8.81199 32.5727 8.94021 32.5727Z" fill="#1C1B1F"/>
</g>
</svg>
