<svg width="41" height="41" viewBox="0 0 41 41" fill="none" xmlns="http://www.w3.org/2000/svg">
<mask id="mask0_199_2301" style="mask-type:alpha" maskUnits="userSpaceOnUse" x="0" y="0" width="41" height="41">
<rect x="0.5" y="0.5" width="40" height="40" fill="#D9D9D9"/>
</mask>
<g mask="url(#mask0_199_2301)">
<path d="M6.95291 16.0662H34.0299L32.2809 9.9337H8.77132L6.95291 16.0662ZM29.0822 18.1602H11.9433L11.3589 22.5085H29.657L29.0822 18.1602ZM7.85578 33.0159L9.86536 18.1602H6.04486C5.58547 18.1602 5.2201 17.9753 4.94874 17.6057C4.67735 17.236 4.60042 16.83 4.71795 16.3877L6.88461 8.83974C6.97436 8.53205 7.13675 8.28579 7.37178 8.10095C7.60681 7.91612 7.88672 7.82905 8.21153 7.83974H32.8044C33.1292 7.83974 33.4091 7.93216 33.6442 8.11699C33.8792 8.30183 34.0416 8.54808 34.1313 8.85574L36.2979 16.3877C36.4155 16.83 36.3386 17.236 36.0672 17.6057C35.7958 17.9753 35.4305 18.1602 34.9711 18.1602H31.1602L33.1441 33.0159H31.0662L29.9252 24.6025H11.0747L9.9337 33.0159H7.85578Z" fill="#1C1B1F"/>
</g>
</svg>
