<svg width="41" height="41" viewBox="0 0 41 41" fill="none" xmlns="http://www.w3.org/2000/svg">
<mask id="mask0_199_2589" style="mask-type:alpha" maskUnits="userSpaceOnUse" x="0" y="0" width="41" height="41">
<rect x="0.5" y="0.5" width="40" height="40" fill="#D9D9D9"/>
</mask>
<g mask="url(#mask0_199_2589)">
<path d="M9.9873 34.5063V23.141C9.9873 22.3931 10.2366 21.7717 10.7352 21.2767C11.2337 20.7817 11.8534 20.5342 12.5941 20.5342H14.5706V16.9337H12.5941C11.8534 16.9337 11.2337 16.6845 10.7352 16.1859C10.2366 15.6873 9.9873 15.0677 9.9873 14.327V9.421C9.9873 8.68028 10.2366 8.06063 10.7352 7.56204C11.2337 7.06349 11.8534 6.81421 12.5941 6.81421H28.406C29.1467 6.81421 29.7664 7.06349 30.2649 7.56204C30.7635 8.06063 31.0128 8.68028 31.0128 9.421V14.327C31.0128 15.0677 30.7635 15.6873 30.2649 16.1859C29.7664 16.6845 29.1467 16.9337 28.406 16.9337H26.4295V20.5342H28.406C29.1467 20.5342 29.7664 20.7817 30.2649 21.2767C30.7635 21.7717 31.0128 22.3931 31.0128 23.141V34.5063H28.9188V29.4615H12.0813V34.5063H9.9873ZM12.5941 14.8398H28.406C28.5342 14.8398 28.6517 14.7864 28.7586 14.6795C28.8654 14.5727 28.9188 14.4552 28.9188 14.327V9.421C28.9188 9.29281 28.8654 9.17528 28.7586 9.06842C28.6517 8.96158 28.5342 8.90817 28.406 8.90817H12.5941C12.4659 8.90817 12.3484 8.96158 12.2416 9.06842C12.1347 9.17528 12.0813 9.29281 12.0813 9.421V14.327C12.0813 14.4552 12.1347 14.5727 12.2416 14.6795C12.3484 14.7864 12.4659 14.8398 12.5941 14.8398ZM16.6646 20.5342H24.3356V16.9337H16.6646V20.5342ZM12.0813 27.3675H28.9188V23.141C28.9188 23.0128 28.8654 22.8953 28.7586 22.7884C28.6517 22.6816 28.5342 22.6282 28.406 22.6282H12.5941C12.4659 22.6282 12.3484 22.6816 12.2416 22.7884C12.1347 22.8953 12.0813 23.0128 12.0813 23.141V27.3675Z" fill="#1C1B1F"/>
</g>
</svg>
