<svg width="41" height="41" viewBox="0 0 41 41" fill="none" xmlns="http://www.w3.org/2000/svg">
<mask id="mask0_199_2535" style="mask-type:alpha" maskUnits="userSpaceOnUse" x="0" y="0" width="41" height="41">
<rect x="0.5" y="0.5" width="40" height="40" fill="#D9D9D9"/>
</mask>
<g mask="url(#mask0_199_2535)">
<path d="M7.04217 36.7499C5.80328 36.7499 4.75043 36.3163 3.88362 35.449C3.01679 34.5818 2.58337 33.5287 2.58337 32.2898C2.58337 31.0509 3.01699 29.9981 3.88421 29.1313C4.75143 28.2645 5.80449 27.8311 7.04337 27.8311C8.28226 27.8311 9.33511 28.2647 10.2019 29.1319C11.0687 29.9991 11.5021 31.0522 11.5021 32.2911C11.5021 33.53 11.0685 34.5828 10.2013 35.4496C9.33407 36.3164 8.28105 36.7499 7.04217 36.7499ZM7.04812 34.6559C7.72476 34.6559 8.28726 34.4299 8.73562 33.978C9.18401 33.5261 9.40821 32.9618 9.40821 32.2851C9.40821 31.6085 9.18357 31.046 8.73429 30.5976C8.28504 30.1492 7.72121 29.925 7.04279 29.925C6.36971 29.925 5.80719 30.1497 5.35525 30.599C4.90333 31.0482 4.67737 31.612 4.67737 32.2905C4.67737 32.9635 4.90333 33.5261 5.35525 33.978C5.80719 34.4299 6.37149 34.6559 7.04812 34.6559ZM12.9712 36.7498C13.2226 36.4279 13.437 36.0844 13.6143 35.7194C13.7917 35.3544 13.9334 34.9999 14.0395 34.6559H18.4851V22.1665C18.4851 21.0797 18.0951 20.1464 17.3151 19.3664C16.5351 18.5864 15.6017 18.1964 14.515 18.1964H6.38892V24.9358C6.05986 24.9394 5.70374 24.9851 5.32054 25.0731C4.93737 25.1611 4.59551 25.2748 4.29496 25.4144V16.1025H9.39108V9.67509C9.39108 7.71656 10.0833 6.04495 11.4678 4.66025C12.8523 3.27559 14.5237 2.58325 16.4819 2.58325C17.9527 2.58325 19.2773 2.97249 20.4557 3.75096C21.6341 4.52946 22.5018 5.58964 23.0588 6.9315L34.669 34.6559H38.4167V36.7498H27.8655V34.6559H32.4595L21.0685 7.80329C20.6582 6.82963 20.0538 6.0652 19.2554 5.51C18.457 4.95481 17.5351 4.67721 16.4897 4.67721C15.0963 4.67721 13.9138 5.16296 12.9423 6.13446C11.9708 7.10599 11.485 8.2862 11.485 9.67509V16.1025H14.5167C16.2007 16.1025 17.6321 16.691 18.8109 17.8681C19.9897 19.0452 20.579 20.478 20.579 22.1665V36.7499L12.9712 36.7498Z" fill="#1C1B1F"/>
</g>
</svg>
