<svg width="41" height="41" viewBox="0 0 41 41" fill="none" xmlns="http://www.w3.org/2000/svg">
<mask id="mask0_199_2391" style="mask-type:alpha" maskUnits="userSpaceOnUse" x="0" y="0" width="41" height="41">
<rect x="0.5" y="0.5" width="40" height="40" fill="#D9D9D9"/>
</mask>
<g mask="url(#mask0_199_2391)">
<path d="M8.70596 33.4166C6.5174 33.4166 4.67205 32.6627 3.16991 31.1549C1.6678 29.6471 0.916748 27.7959 0.916748 25.6015C0.916748 23.4284 1.6798 21.5802 3.20591 20.0566C4.73203 18.5331 6.57579 17.7714 8.73721 17.7714C10.676 17.7714 12.3722 18.4083 13.8259 19.6822C15.2796 20.956 16.1375 22.5613 16.3996 24.4979H18.9253L15.4338 14.6773H12.5834V12.5834H19.8355V14.6773H17.6517L18.7714 17.7714H28.3099L25.436 9.96579C25.4039 9.86963 25.3505 9.79751 25.2757 9.74946C25.2009 9.70137 25.1154 9.67733 25.0193 9.67733H21.0749V7.58337H24.8953C25.4915 7.58337 26.0159 7.7349 26.4685 8.03796C26.9211 8.34101 27.2507 8.77353 27.4573 9.3355L30.5449 17.765H32.2906C34.4444 17.765 36.2816 18.5217 37.8023 20.035C39.323 21.5483 40.0833 23.3766 40.0833 25.5199C40.0833 27.6861 39.3295 29.5384 37.8219 31.0769C36.3142 32.6154 34.4705 33.3846 32.2906 33.3846C30.3379 33.3846 28.6357 32.7362 27.184 31.4396C25.7323 30.1429 24.8562 28.527 24.5556 26.5918H16.3996C16.1375 28.5498 15.2744 30.1768 13.8104 31.4727C12.3463 32.7687 10.6449 33.4166 8.70596 33.4166ZM8.70946 31.3227C10.0682 31.3227 11.2606 30.8887 12.2867 30.0208C13.3129 29.1529 13.9873 28.0099 14.3099 26.5918H9.374V24.4979H14.3099C13.9873 23.0855 13.3106 21.9656 12.28 21.1383C11.2494 20.3111 10.0684 19.8974 8.73721 19.8974C7.13179 19.8974 5.77601 20.4481 4.66987 21.5494C3.56376 22.6507 3.01071 23.9996 3.01071 25.5962C3.01071 27.1863 3.56136 28.5382 4.66266 29.652C5.764 30.7658 7.11293 31.3227 8.70946 31.3227ZM21.1923 24.4979H24.5727C24.6788 23.7949 24.9294 22.9909 25.3243 22.086C25.7193 21.1811 26.2807 20.4408 27.0087 19.8653H19.5085L21.1923 24.4979ZM32.2925 31.3227C33.8896 31.3227 35.2383 30.7658 36.3388 29.652C37.4392 28.5382 37.9894 27.1879 37.9894 25.6011C37.9894 23.9995 37.4387 22.6485 36.3374 21.548C35.2361 20.4476 33.8872 19.8974 32.2906 19.8974C32.1161 19.8974 31.9473 19.9001 31.7842 19.9054C31.6211 19.9108 31.4594 19.9294 31.2991 19.9615L32.9808 24.6154L31.0214 25.3183L29.2992 20.6816C28.4167 21.1859 27.7449 21.8867 27.2837 22.7842C26.8225 23.6816 26.5919 24.6189 26.5919 25.5962C26.5919 27.1863 27.1427 28.5382 28.2444 29.652C29.3461 30.7658 30.6955 31.3227 32.2925 31.3227Z" fill="#1C1B1F"/>
</g>
</svg>
