<svg width="41" height="41" viewBox="0 0 41 41" fill="none" xmlns="http://www.w3.org/2000/svg">
<mask id="mask0_0_933" style="mask-type:alpha" maskUnits="userSpaceOnUse" x="0" y="0" width="41" height="41">
<rect x="0.5" y="0.5" width="40" height="40" fill="#D9D9D9"/>
</mask>
<g mask="url(#mask0_0_933)">
<path d="M8.70596 33.4165C6.5174 33.4165 4.67205 32.6626 3.16991 31.1548C1.6678 29.6469 0.916748 27.7958 0.916748 25.6014C0.916748 23.4283 1.6798 21.58 3.20591 20.0565C4.73203 18.533 6.57579 17.7713 8.73721 17.7713C10.676 17.7713 12.3722 18.4082 13.8259 19.682C15.2796 20.9559 16.1375 22.5611 16.3996 24.4978H18.9253L15.4338 14.6772H12.5834V12.5833H19.8355V14.6772H17.6517L18.7714 17.7713H28.3099L25.436 9.96567C25.4039 9.8695 25.3505 9.79739 25.2757 9.74934C25.2009 9.70125 25.1154 9.67721 25.0193 9.67721H21.0749V7.58325H24.8953C25.4915 7.58325 26.0159 7.73478 26.4685 8.03784C26.9211 8.34089 27.2507 8.77341 27.4573 9.33538L30.5449 17.7649H32.2906C34.4444 17.7649 36.2816 18.5215 37.8023 20.0348C39.323 21.5482 40.0833 23.3765 40.0833 25.5198C40.0833 27.686 39.3295 29.5383 37.8219 31.0768C36.3142 32.6152 34.4705 33.3845 32.2906 33.3845C30.3379 33.3845 28.6357 32.7361 27.184 31.4395C25.7323 30.1428 24.8562 28.5269 24.5556 26.5917H16.3996C16.1375 28.5497 15.2744 30.1767 13.8104 31.4726C12.3463 32.7685 10.6449 33.4165 8.70596 33.4165ZM8.70946 31.3225C10.0682 31.3225 11.2606 30.8886 12.2867 30.0207C13.3129 29.1528 13.9873 28.0098 14.3099 26.5917H9.374V24.4978H14.3099C13.9873 23.0854 13.3106 21.9655 12.28 21.1382C11.2494 20.3109 10.0684 19.8973 8.73721 19.8973C7.13179 19.8973 5.77601 20.4479 4.66987 21.5493C3.56376 22.6506 3.01071 23.9995 3.01071 25.596C3.01071 27.1862 3.56136 28.5381 4.66266 29.6519C5.764 30.7657 7.11293 31.3225 8.70946 31.3225ZM21.1923 24.4978H24.5727C24.6788 23.7948 24.9294 22.9908 25.3243 22.0859C25.7193 21.1809 26.2807 20.4407 27.0087 19.8652H19.5085L21.1923 24.4978ZM32.2925 31.3225C33.8896 31.3225 35.2383 30.7657 36.3388 29.6519C37.4392 28.5381 37.9894 27.1878 37.9894 25.601C37.9894 23.9994 37.4387 22.6484 36.3374 21.5479C35.2361 20.4475 33.8872 19.8973 32.2906 19.8973C32.1161 19.8973 31.9473 19.9 31.7842 19.9053C31.6211 19.9106 31.4594 19.9293 31.2991 19.9614L32.9808 24.6153L31.0214 25.3182L29.2992 20.6815C28.4167 21.1857 27.7449 21.8866 27.2837 22.784C26.8225 23.6815 26.5919 24.6188 26.5919 25.596C26.5919 27.1862 27.1427 28.5381 28.2444 29.6519C29.3461 30.7657 30.6955 31.3225 32.2925 31.3225Z" fill="#1C1B1F"/>
</g>
</svg>
