<svg width="41" height="41" viewBox="0 0 41 41" fill="none" xmlns="http://www.w3.org/2000/svg">
<mask id="mask0_199_2481" style="mask-type:alpha" maskUnits="userSpaceOnUse" x="0" y="0" width="41" height="41">
<rect x="0.5" y="0.5" width="40" height="40" fill="#D9D9D9"/>
</mask>
<g mask="url(#mask0_199_2481)">
<path d="M8.94021 28C8.22387 28 7.61032 27.7446 7.09954 27.2338C6.58876 26.723 6.33337 26.1095 6.33337 25.3931V15.6069C6.33337 14.8906 6.58876 14.277 7.09954 13.7662C7.61032 13.2554 8.22387 13.0001 8.94021 13.0001H32.0598C32.7761 13.0001 33.3897 13.2554 33.9005 13.7662C34.4112 14.277 34.6666 14.8906 34.6666 15.6069V25.3931C34.6666 26.1095 34.4112 26.723 33.9005 27.2338C33.3897 27.7446 32.7761 28 32.0598 28H8.94021ZM8.94021 25.906H32.0598C32.188 25.906 32.3055 25.8526 32.4124 25.7457C32.5192 25.6389 32.5727 25.5214 32.5727 25.3931V15.6069C32.5727 15.4787 32.5192 15.3611 32.4124 15.2543C32.3055 15.1475 32.188 15.094 32.0598 15.094H8.94021C8.81199 15.094 8.69446 15.1475 8.58762 15.2543C8.48076 15.3611 8.42733 15.4787 8.42733 15.6069V25.3931C8.42733 25.5214 8.48076 25.6389 8.58762 25.7457C8.69446 25.8526 8.81199 25.906 8.94021 25.906Z" fill="#1C1B1F"/>
</g>
</svg>
