<svg width="41" height="41" viewBox="0 0 41 41" fill="none" xmlns="http://www.w3.org/2000/svg">
<mask id="mask0_199_2487" style="mask-type:alpha" maskUnits="userSpaceOnUse" x="0" y="0" width="41" height="41">
<rect x="0.5" y="0.5" width="40" height="40" fill="#D9D9D9"/>
</mask>
<g mask="url(#mask0_199_2487)">
<path d="M7.88254 34.2178V31.3333H7.27358C6.55955 31.3333 5.94658 31.0773 5.43466 30.5653C4.92272 30.0534 4.66675 29.4404 4.66675 28.7264V10.6068C4.66675 9.89281 4.92272 9.27984 5.43466 8.76792C5.94658 8.25597 6.55955 8 7.27358 8H33.7265C34.4405 8 35.0535 8.25597 35.5654 8.76792C36.0774 9.27984 36.3333 9.89281 36.3333 10.6068V28.7264C36.3333 29.4404 36.0774 30.0534 35.5654 30.5653C35.0535 31.0773 34.4405 31.3333 33.7265 31.3333H33.1175V34.2178H32.2116L31.2454 31.3333H9.81221L8.7885 34.2178H7.88254ZM7.27358 29.2393H33.7265C33.8761 29.2393 33.999 29.1912 34.0951 29.095C34.1913 28.9989 34.2394 28.876 34.2394 28.7264V10.6068C34.2394 10.4573 34.1913 10.3344 34.0951 10.2382C33.999 10.142 33.8761 10.094 33.7265 10.094H7.27358C7.124 10.094 7.00112 10.142 6.90496 10.2382C6.80879 10.3344 6.76071 10.4573 6.76071 10.6068V28.7264C6.76071 28.876 6.80879 28.9989 6.90496 29.095C7.00112 29.1912 7.124 29.2393 7.27358 29.2393Z" fill="#1C1B1F"/>
</g>
</svg>
