<svg width="41" height="41" viewBox="0 0 41 41" fill="none" xmlns="http://www.w3.org/2000/svg">
<mask id="mask0_199_2409" style="mask-type:alpha" maskUnits="userSpaceOnUse" x="0" y="0" width="41" height="41">
<rect x="0.5" y="0.5" width="40" height="40" fill="#D9D9D9"/>
</mask>
<g mask="url(#mask0_199_2409)">
<path d="M10.6068 36.3333C9.89281 36.3333 9.27983 36.0774 8.76792 35.5654C8.25597 35.0535 8 34.4405 8 33.7265V7.27358C8 6.55955 8.25597 5.94658 8.76792 5.43467C9.27983 4.92272 9.89281 4.66675 10.6068 4.66675H30.3931C31.1071 4.66675 31.7201 4.92272 32.232 5.43467C32.7439 5.94658 32.9999 6.55955 32.9999 7.27358V33.7265C32.9999 34.4405 32.7439 35.0535 32.232 35.5654C31.7201 36.0774 31.1071 36.3333 30.3931 36.3333H10.6068ZM10.6068 34.2394H30.3931C30.5213 34.2394 30.6388 34.1859 30.7457 34.0791C30.8525 33.9722 30.906 33.8547 30.906 33.7265V7.27358C30.906 7.14536 30.8525 7.02783 30.7457 6.921C30.6388 6.81414 30.5213 6.76071 30.3931 6.76071H10.6068C10.4786 6.76071 10.3611 6.81414 10.2542 6.921C10.1474 7.02783 10.094 7.14536 10.094 7.27358V33.7265C10.094 33.8547 10.1474 33.9722 10.2542 34.0791C10.3611 34.1859 10.4786 34.2394 10.6068 34.2394ZM20.5025 31.5428C22.5929 31.5428 24.3764 30.8035 25.8532 29.325C27.3299 27.8466 28.0683 26.0622 28.0683 23.9718C28.0683 21.8815 27.3291 20.098 25.8506 18.6212C24.3721 17.1445 22.5877 16.4061 20.4974 16.4061C18.407 16.4061 16.6235 17.1453 15.1468 18.6237C13.67 20.1022 12.9316 21.8866 12.9316 23.977C12.9316 26.0673 13.6709 27.8508 15.1493 29.3276C16.6278 30.8044 18.4122 31.5428 20.5025 31.5428ZM20.5 29.0235C19.8219 29.0235 19.1661 28.901 18.5325 28.656C17.899 28.411 17.3425 28.047 16.8632 27.5641L24.0726 20.3547C24.5669 20.8191 24.9366 21.3687 25.1816 22.0034C25.4266 22.6381 25.5491 23.2951 25.5491 23.9744C25.5491 25.3769 25.0582 26.5691 24.0764 27.5509C23.0946 28.5327 21.9025 29.0235 20.5 29.0235ZM13.5166 11.6026C13.9293 11.6026 14.2747 11.4601 14.5528 11.1752C14.831 10.8902 14.97 10.5414 14.97 10.1287C14.97 9.71601 14.8293 9.3706 14.5478 9.09246C14.2664 8.81432 13.9176 8.67525 13.5015 8.67525C13.0924 8.67525 12.7469 8.81599 12.4652 9.09746C12.1836 9.37893 12.0427 9.72771 12.0427 10.1438C12.0427 10.5529 12.1852 10.8983 12.4701 11.18C12.7551 11.4617 13.1039 11.6026 13.5166 11.6026ZM18.7986 11.6026C19.2113 11.6026 19.5568 11.4601 19.8349 11.1752C20.113 10.8902 20.2521 10.5414 20.2521 10.1287C20.2521 9.71601 20.1113 9.3706 19.8299 9.09246C19.5484 8.81432 19.1996 8.67525 18.7835 8.67525C18.3744 8.67525 18.029 8.81599 17.7473 9.09746C17.4656 9.37893 17.3248 9.72771 17.3248 10.1438C17.3248 10.5529 17.4672 10.8983 17.7522 11.18C18.0371 11.4617 18.3859 11.6026 18.7986 11.6026Z" fill="#1C1B1F"/>
</g>
</svg>
