<svg width="41" height="41" viewBox="0 0 41 41" fill="none" xmlns="http://www.w3.org/2000/svg">
<mask id="mask0_199_2655" style="mask-type:alpha" maskUnits="userSpaceOnUse" x="0" y="0" width="41" height="41">
<rect x="0.5" y="0.5" width="40" height="40" fill="#D9D9D9"/>
</mask>
<g mask="url(#mask0_199_2655)">
<path d="M13.8383 11.7714C14.1904 11.7714 14.4895 11.6467 14.7355 11.3972C14.9816 11.1478 15.1046 10.847 15.1046 10.495C15.1046 10.1429 14.9799 9.84387 14.7305 9.59779C14.481 9.35174 14.1803 9.22871 13.8282 9.22871C13.4762 9.22871 13.1771 9.35343 12.931 9.60287C12.685 9.85232 12.562 10.1531 12.562 10.5051C12.562 10.8571 12.6867 11.1562 12.9361 11.4023C13.1856 11.6483 13.4863 11.7714 13.8383 11.7714ZM18.8383 11.7714C19.1904 11.7714 19.4895 11.6467 19.7355 11.3972C19.9816 11.1478 20.1046 10.847 20.1046 10.495C20.1046 10.1429 19.9799 9.84387 19.7305 9.59779C19.481 9.35174 19.1803 9.22871 18.8282 9.22871C18.4762 9.22871 18.1771 9.35343 17.931 9.60287C17.685 9.85232 17.562 10.1531 17.562 10.5051C17.562 10.8571 17.6867 11.1562 17.9361 11.4023C18.1856 11.6483 18.4863 11.7714 18.8383 11.7714ZM20.5001 29.8803C22.0797 29.8803 23.4269 29.3433 24.5416 28.2691C25.6563 27.1949 26.2136 25.8844 26.2136 24.3376C26.2136 23.6126 26.0825 22.9091 25.8205 22.2271C25.5583 21.5451 25.1655 20.9459 24.642 20.4295L20.5 16.2875L16.503 20.2845C15.9682 20.8263 15.5415 21.4463 15.2227 22.1443C14.904 22.8423 14.7586 23.572 14.7863 24.3334C14.8323 25.8818 15.4079 27.1935 16.5132 28.2682C17.6184 29.343 18.9474 29.8803 20.5001 29.8803ZM20.5039 27.92C19.4977 27.92 18.6422 27.5723 17.9374 26.877C17.2326 26.1818 16.8803 25.3322 16.8803 24.3283C16.8803 23.8423 16.9771 23.3772 17.1709 22.9327C17.3646 22.4883 17.6417 22.0915 18.0021 21.7425L20.5 19.2617L23.1325 21.8772C23.4558 22.1934 23.7012 22.5643 23.8686 22.9899C24.036 23.4154 24.1197 23.8623 24.1197 24.3305C24.1197 25.3338 23.7686 26.1829 23.0664 26.8777C22.3642 27.5725 21.51 27.92 20.5039 27.92ZM10.6068 36.3333C9.89281 36.3333 9.27983 36.0774 8.76792 35.5654C8.25597 35.0535 8 34.4405 8 33.7265V7.27358C8 6.55955 8.25597 5.94658 8.76792 5.43467C9.27983 4.92272 9.89281 4.66675 10.6068 4.66675H30.3931C31.1071 4.66675 31.7201 4.92272 32.232 5.43467C32.7439 5.94658 32.9999 6.55955 32.9999 7.27358V33.7265C32.9999 34.4405 32.7439 35.0535 32.232 35.5654C31.7201 36.0774 31.1071 36.3333 30.3931 36.3333H10.6068ZM10.6068 34.2394H30.3931C30.5427 34.2394 30.6655 34.1913 30.7617 34.0951C30.8579 33.999 30.906 33.8761 30.906 33.7265V7.27358C30.906 7.124 30.8579 7.00112 30.7617 6.90496C30.6655 6.80879 30.5427 6.76071 30.3931 6.76071H10.6068C10.4572 6.76071 10.3344 6.80879 10.2382 6.90496C10.142 7.00112 10.094 7.124 10.094 7.27358V33.7265C10.094 33.8761 10.142 33.999 10.2382 34.0951C10.3344 34.1913 10.4572 34.2394 10.6068 34.2394Z" fill="#1C1B1F"/>
</g>
</svg>
