<svg width="41" height="41" viewBox="0 0 41 41" fill="none" xmlns="http://www.w3.org/2000/svg">
<mask id="mask0_0_965" style="mask-type:alpha" maskUnits="userSpaceOnUse" x="0" y="0" width="41" height="41">
<rect x="0.5" y="0.5" width="40" height="40" fill="#D9D9D9"/>
</mask>
<g mask="url(#mask0_0_965)">
<path d="M4.66675 31.3334V21.857C4.66675 21.2651 4.8085 20.677 5.092 20.0925C5.37547 19.5081 5.78928 19.0486 6.33342 18.7138V14.3848C6.33342 13.2915 6.70753 12.3708 7.45575 11.6225C8.20394 10.8743 9.12469 10.5002 10.218 10.5002H17.7073C18.2956 10.5002 18.8245 10.6286 19.2939 10.8854C19.7632 11.1422 20.1653 11.4903 20.5 11.9297C20.8348 11.4903 21.234 11.1422 21.6977 10.8854C22.1613 10.6286 22.6873 10.5002 23.2757 10.5002H30.765C31.8583 10.5002 32.7819 10.8743 33.5358 11.6225C34.2897 12.3708 34.6667 13.2915 34.6667 14.3848V18.7138C35.2108 19.0486 35.6246 19.5081 35.9081 20.0925C36.1916 20.677 36.3333 21.2651 36.3333 21.857V31.3334H34.2394V28.0001H6.76071V31.3334H4.66675ZM21.547 18.0963H32.5727V14.3848C32.5727 13.8713 32.398 13.4444 32.0487 13.1043C31.6993 12.7642 31.2714 12.5942 30.765 12.5942H23.2137C22.7414 12.5942 22.3456 12.7717 22.0262 13.1268C21.7067 13.4818 21.547 13.9012 21.547 14.3848V18.0963ZM8.42737 18.0963H19.4531V14.3848C19.4531 13.9012 19.2934 13.4818 18.9739 13.1268C18.6545 12.7717 18.2586 12.5942 17.7864 12.5942H10.218C9.72297 12.5942 9.30078 12.7689 8.95141 13.1182C8.60205 13.4676 8.42737 13.8898 8.42737 14.3848V18.0963ZM6.76071 25.9061H34.2394V21.857C34.2394 21.3918 34.0797 20.9978 33.7602 20.6748C33.4408 20.3518 33.0449 20.1903 32.5727 20.1903H8.42737C7.95515 20.1903 7.55932 20.3518 7.23987 20.6748C6.92043 20.9978 6.76071 21.3918 6.76071 21.857V25.9061Z" fill="#1C1B1F"/>
</g>
</svg>
