<svg width="96" height="96" viewBox="0 0 96 96" fill="none" xmlns="http://www.w3.org/2000/svg">
<mask id="mask0_0_662" style="mask-type:alpha" maskUnits="userSpaceOnUse" x="0" y="0" width="96" height="96">
<rect width="96" height="96" fill="#D9D9D9"/>
</mask>
<g mask="url(#mask0_0_662)">
<path d="M15.0769 72.9231V42.1538V44.3846V23.0769V72.9231ZM70.1385 80.4616L58.2923 68.6154C57.5282 67.8513 57.0012 67.059 56.7115 66.2385C56.4218 65.418 56.2769 64.5846 56.2769 63.7385C56.2769 61.9128 56.9154 60.2949 58.1923 58.8846C59.4692 57.4743 61.1282 56.7692 63.1692 56.7692C64.7795 56.7692 66.041 57.1384 66.9539 57.8769C67.8667 58.6154 68.9282 59.5897 70.1385 60.8C71.318 59.6205 72.368 58.6539 73.2885 57.9C74.209 57.1461 75.482 56.7692 77.1077 56.7692C79.2154 56.7692 80.8911 57.4782 82.1346 58.8962C83.3782 60.3141 84 61.9359 84 63.7615C84 64.6077 83.8385 65.4539 83.5154 66.3C83.1923 67.1461 82.6821 67.9179 81.9846 68.6154L70.1385 80.4616ZM15.0769 35.6692H80.9231V25.5384C80.9231 24.9231 80.6667 24.359 80.1539 23.8461C79.641 23.3333 79.0769 23.0769 78.4616 23.0769H17.5384C16.9231 23.0769 16.359 23.3333 15.8461 23.8461C15.3333 24.359 15.0769 24.9231 15.0769 25.5384V35.6692ZM44.6308 76H17.5384C16.0013 76 14.6939 75.4612 13.6163 74.3837C12.5388 73.3061 12 71.9987 12 70.4616V25.5384C12 24.0013 12.5388 22.6939 13.6163 21.6163C14.6939 20.5388 16.0013 20 17.5384 20H78.4616C79.9987 20 81.3061 20.5388 82.3837 21.6163C83.4612 22.6939 84 24.0013 84 25.5384V46.0692C81.9744 44.8128 79.7962 43.8461 77.4654 43.1692C75.1346 42.4923 72.6923 42.1538 70.1385 42.1538C68.4256 42.1538 66.7282 42.282 65.0461 42.5385C63.3641 42.7949 61.7205 43.1898 60.1154 43.7231H15.0769V70.4616C15.0769 71.0769 15.3333 71.641 15.8461 72.1539C16.359 72.6667 16.9231 72.9231 17.5384 72.9231H44.0653C44.1397 73.466 44.2205 73.9966 44.3077 74.5149C44.3949 75.0332 44.5026 75.5282 44.6308 76Z" fill="#00205B"/>
</g>
</svg>
