<svg width="24" height="24" viewBox="0 0 24 24" fill="none" xmlns="http://www.w3.org/2000/svg">
<mask id="mask0_0_500" style="mask-type:alpha" maskUnits="userSpaceOnUse" x="0" y="0" width="24" height="24">
<rect width="24" height="24" fill="#D9D9D9"/>
</mask>
<g mask="url(#mask0_0_500)">
<path d="M10.6002 16.601L17.6502 9.55098L16.2502 8.15098L10.6002 13.801L7.75024 10.951L6.35024 12.351L10.6002 16.601ZM12.0002 22.001C10.6169 22.001 9.31691 21.7385 8.10024 21.2135C6.88358 20.6885 5.82524 19.976 4.92524 19.076C4.02524 18.176 3.31274 17.1176 2.78774 15.901C2.26274 14.6843 2.00024 13.3843 2.00024 12.001C2.00024 10.6176 2.26274 9.31764 2.78774 8.10098C3.31274 6.88431 4.02524 5.82598 4.92524 4.92598C5.82524 4.02598 6.88358 3.31348 8.10024 2.78848C9.31691 2.26348 10.6169 2.00098 12.0002 2.00098C13.3836 2.00098 14.6836 2.26348 15.9002 2.78848C17.1169 3.31348 18.1752 4.02598 19.0752 4.92598C19.9752 5.82598 20.6877 6.88431 21.2127 8.10098C21.7377 9.31764 22.0002 10.6176 22.0002 12.001C22.0002 13.3843 21.7377 14.6843 21.2127 15.901C20.6877 17.1176 19.9752 18.176 19.0752 19.076C18.1752 19.976 17.1169 20.6885 15.9002 21.2135C14.6836 21.7385 13.3836 22.001 12.0002 22.001ZM12.0002 20.001C14.2336 20.001 16.1252 19.226 17.6752 17.676C19.2252 16.126 20.0002 14.2343 20.0002 12.001C20.0002 9.76764 19.2252 7.87598 17.6752 6.32598C16.1252 4.77598 14.2336 4.00098 12.0002 4.00098C9.76691 4.00098 7.87524 4.77598 6.32524 6.32598C4.77524 7.87598 4.00024 9.76764 4.00024 12.001C4.00024 14.2343 4.77524 16.126 6.32524 17.676C7.87524 19.226 9.76691 20.001 12.0002 20.001Z" fill="#006C0E"/>
</g>
</svg>
