<svg width="96" height="96" viewBox="0 0 96 96" fill="none" xmlns="http://www.w3.org/2000/svg">
<mask id="mask0_0_650" style="mask-type:alpha" maskUnits="userSpaceOnUse" x="0" y="0" width="96" height="96">
<rect width="96" height="96" fill="#D9D9D9"/>
</mask>
<g mask="url(#mask0_0_650)">
<path d="M59.2642 76C51.4382 76 44.8095 73.2843 39.378 67.8528C33.9465 62.4214 31.2308 55.7927 31.2308 47.9667C31.2308 40.1838 33.9465 33.5769 39.378 28.1461C44.8095 22.7154 51.4382 20 59.2642 20C67.0471 20 73.654 22.7154 79.0847 28.1461C84.5155 33.5769 87.2309 40.1838 87.2309 47.9667C87.2309 55.7927 84.5155 62.4214 79.0847 67.8528C73.654 73.2843 67.0471 76 59.2642 76ZM59.2073 72.9231C66.1153 72.9231 72.0001 70.513 76.8616 65.6928C81.7232 60.8725 84.154 54.9828 84.154 48.0235C84.154 41.1155 81.7311 35.2307 76.8852 30.3692C72.0393 25.5077 66.1624 23.0769 59.2544 23.0769C52.2951 23.0769 46.3975 25.4998 41.5616 30.3457C36.7257 35.1916 34.3078 41.0685 34.3078 47.9765C34.3078 54.9358 36.7179 60.8333 41.5381 65.6692C46.3583 70.5051 52.248 72.9231 59.2073 72.9231ZM69.5847 60.5308L71.7847 58.4077L60.7693 47.3923V33.2308H57.6924V48.5846L69.5847 60.5308ZM12.7693 33.5385V30.4615H27.2308V33.5385H12.7693ZM8.76929 49.5385V46.4615H27.2308V49.5385H8.76929ZM12.7693 65.5385V62.4615H27.2308V65.5385H12.7693Z" fill="#00205B"/>
</g>
</svg>
