<svg width="595" height="230" viewBox="0 0 595 230" fill="none" xmlns="http://www.w3.org/2000/svg">
<path fill-rule="evenodd" clip-rule="evenodd" d="M5.02681e-06 3.18022e-06L8.67125e-06 57.5L115 115L2.51341e-06 172.5L0 230L115 172.5V230L230 172.5V115V57.5L115 0V57.5L5.02681e-06 3.18022e-06ZM115 57.5V115V172.5L230 115L115 57.5Z" fill="white"/>
<path d="M320.841 160L295.419 69.9221H312.968L329.198 136.117H330.034L347.363 69.9221H363.329L380.703 136.161H381.495L397.724 69.9221H415.274L389.851 160H373.753L355.72 96.7959H355.017L336.939 160H320.841ZM447.296 161.32C440.523 161.32 434.673 159.912 429.747 157.097C424.85 154.253 421.082 150.236 418.443 145.046C415.804 139.826 414.485 133.683 414.485 126.617C414.485 119.667 415.804 113.568 418.443 108.32C421.111 103.042 424.835 98.9364 429.615 96.0042C434.394 93.0427 440.01 91.5619 446.46 91.5619C450.624 91.5619 454.553 92.2363 458.248 93.5851C461.972 94.9046 465.256 96.9572 468.1 99.7428C470.974 102.528 473.232 106.076 474.874 110.387C476.516 114.668 477.337 119.77 477.337 125.693V130.575H421.962V119.843H462.075C462.045 116.794 461.385 114.081 460.095 111.706C458.805 109.302 457.002 107.411 454.685 106.032C452.398 104.654 449.73 103.965 446.68 103.965C443.426 103.965 440.567 104.757 438.104 106.34C435.641 107.894 433.72 109.947 432.342 112.498C430.993 115.02 430.304 117.791 430.275 120.811V130.179C430.275 134.108 430.993 137.481 432.43 140.295C433.867 143.081 435.875 145.222 438.456 146.717C441.036 148.183 444.056 148.916 447.516 148.916C449.833 148.916 451.929 148.594 453.806 147.949C455.682 147.274 457.31 146.292 458.688 145.002C460.066 143.711 461.107 142.113 461.811 140.207L476.677 141.879C475.739 145.808 473.95 149.239 471.311 152.171C468.701 155.074 465.359 157.332 461.283 158.944C457.207 160.528 452.545 161.32 447.296 161.32ZM542.6 110.299L528.085 111.882C527.675 110.416 526.956 109.038 525.93 107.748C524.933 106.458 523.584 105.417 521.883 104.625C520.183 103.833 518.101 103.437 515.638 103.437C512.324 103.437 509.539 104.156 507.281 105.593C505.053 107.029 503.953 108.891 503.982 111.178C503.953 113.143 504.671 114.741 506.137 115.973C507.633 117.204 510.096 118.216 513.527 119.008L525.05 121.471C531.443 122.849 536.193 125.033 539.301 128.024C542.438 131.015 544.022 134.929 544.051 139.768C544.022 144.019 542.776 147.773 540.313 151.027C537.879 154.253 534.492 156.775 530.152 158.593C525.813 160.411 520.828 161.32 515.198 161.32C506.929 161.32 500.273 159.589 495.23 156.129C490.186 152.64 487.181 147.787 486.213 141.571L501.739 140.076C502.443 143.125 503.938 145.427 506.225 146.981C508.513 148.535 511.489 149.312 515.154 149.312C518.937 149.312 521.971 148.535 524.259 146.981C526.575 145.427 527.733 143.506 527.733 141.219C527.733 139.284 526.986 137.686 525.49 136.425C524.024 135.164 521.737 134.196 518.629 133.522L507.105 131.103C500.625 129.754 495.831 127.482 492.723 124.286C489.614 121.06 488.075 116.984 488.104 112.058C488.075 107.894 489.204 104.288 491.491 101.238C493.807 98.1594 497.018 95.7843 501.123 94.1129C505.258 92.4122 510.023 91.5619 515.418 91.5619C523.335 91.5619 529.566 93.2479 534.111 96.62C538.685 99.992 541.515 104.552 542.6 110.299ZM589.312 92.4416V104.757H550.475V92.4416H589.312ZM560.064 76.2557H575.986V139.68C575.986 141.82 576.308 143.462 576.953 144.606C577.628 145.72 578.507 146.482 579.592 146.893C580.677 147.303 581.879 147.509 583.199 147.509C584.196 147.509 585.105 147.435 585.926 147.289C586.776 147.142 587.421 147.01 587.861 146.893L590.544 159.34C589.694 159.633 588.477 159.956 586.893 160.308C585.339 160.66 583.433 160.865 581.176 160.924C577.188 161.041 573.596 160.44 570.4 159.12C567.204 157.772 564.667 155.69 562.791 152.875C560.943 150.06 560.034 146.541 560.064 142.319V76.2557Z" fill="white"/>
</svg>
