<svg width="96" height="96" viewBox="0 0 96 96" fill="none" xmlns="http://www.w3.org/2000/svg">
<mask id="mask0_0_638" style="mask-type:alpha" maskUnits="userSpaceOnUse" x="0" y="0" width="96" height="96">
<rect width="96" height="96" fill="#D9D9D9"/>
</mask>
<g mask="url(#mask0_0_638)">
<path d="M34.3846 46.7692C36.6718 46.7692 38.6205 45.9705 40.2308 44.3731C41.8411 42.7756 43.0129 40.859 43.7462 38.6231L40.3308 37.7615C39.8436 39.2282 39.1064 40.5064 38.1192 41.5961C37.1321 42.6859 35.8872 43.2308 34.3846 43.2308C32.8821 43.2308 31.6372 42.6859 30.65 41.5961C29.6628 40.5064 28.9256 39.2282 28.4385 37.7615L25.0231 38.6231C25.7564 40.859 26.9282 42.7756 28.5385 44.3731C30.1487 45.9705 32.0974 46.7692 34.3846 46.7692ZM48.0217 68.7692C50.2996 68.7692 52.4846 68.2884 54.5769 67.3269C56.6692 66.3654 58.6205 64.9487 60.4308 63.0769L57.8769 60.6923C56.359 62.1384 54.7667 63.2397 53.1 63.9961C51.4333 64.7526 49.7333 65.1308 48 65.1308C46.2667 65.1308 44.5667 64.7526 42.9 63.9961C41.2333 63.2397 39.641 62.1384 38.1231 60.6923L35.5692 63.0769C37.4461 65 39.4213 66.4295 41.4948 67.3654C43.5682 68.3013 45.7438 68.7692 48.0217 68.7692ZM61.6154 46.7692C63.9026 46.7692 65.8513 45.9705 67.4615 44.3731C69.0718 42.7756 70.2436 40.859 70.9769 38.6231L67.5615 37.7615C67.0744 39.2282 66.3372 40.5064 65.35 41.5961C64.3628 42.6859 63.1179 43.2308 61.6154 43.2308C60.1128 43.2308 58.8679 42.6859 57.8808 41.5961C56.8936 40.5064 56.1564 39.2282 55.6692 37.7615L52.2538 38.6231C52.9871 40.859 54.1589 42.7756 55.7692 44.3731C57.3795 45.9705 59.3282 46.7692 61.6154 46.7692ZM48.0134 84C43.0352 84 38.3549 83.0554 33.9724 81.1661C29.5899 79.2768 25.7778 76.7127 22.5359 73.4739C19.2941 70.2351 16.7277 66.4265 14.8366 62.0482C12.9455 57.6698 12 52.9915 12 48.0134C12 43.0352 12.9446 38.3549 14.8339 33.9724C16.7232 29.5899 19.2873 25.7778 22.5261 22.5359C25.7649 19.2941 29.5735 16.7277 33.9518 14.8366C38.3302 12.9455 43.0085 12 47.9866 12C52.9648 12 57.6451 12.9446 62.0276 14.8339C66.4101 16.7232 70.2222 19.2873 73.4641 22.5261C76.7059 25.7649 79.2723 29.5735 81.1634 33.9518C83.0545 38.3302 84 43.0085 84 47.9866C84 52.9648 83.0554 57.6451 81.1661 62.0276C79.2768 66.4101 76.7127 70.2222 73.4739 73.4641C70.2351 76.7059 66.4265 79.2723 62.0482 81.1634C57.6698 83.0545 52.9915 84 48.0134 84ZM47.9925 80.9231C57.1815 80.9231 64.9672 77.7344 71.3495 71.357C77.7319 64.9796 80.9231 57.1964 80.9231 48.0075C80.9231 38.8185 77.7344 31.0328 71.357 24.6505C64.9796 18.2681 57.1964 15.0769 48.0075 15.0769C38.8185 15.0769 31.0328 18.2656 24.6505 24.643C18.2681 31.0204 15.0769 38.8036 15.0769 47.9925C15.0769 57.1815 18.2656 64.9672 24.643 71.3495C31.0204 77.7319 38.8036 80.9231 47.9925 80.9231Z" fill="#00205B"/>
</g>
</svg>
