<svg width="41" height="41" viewBox="0 0 41 41" fill="none" xmlns="http://www.w3.org/2000/svg">
<mask id="mask0_0_920" style="mask-type:alpha" maskUnits="userSpaceOnUse" x="0" y="0" width="41" height="41">
<rect x="0.5" y="0.5" width="40" height="40" fill="#D9D9D9"/>
</mask>
<g mask="url(#mask0_0_920)">
<path d="M6.95303 16.0662H34.03L32.2811 9.9337H8.77144L6.95303 16.0662ZM29.0824 18.1602H11.9434L11.359 22.5085H29.6572L29.0824 18.1602ZM7.8559 33.0159L9.86549 18.1602H6.04499C5.5856 18.1602 5.22022 17.9753 4.94886 17.6057C4.67747 17.236 4.60054 16.83 4.71807 16.3877L6.88474 8.83974C6.97449 8.53205 7.13687 8.28579 7.3719 8.10095C7.60693 7.91612 7.88685 7.82905 8.21165 7.83974H32.8045C33.1293 7.83974 33.4092 7.93216 33.6443 8.11699C33.8793 8.30183 34.0417 8.54808 34.1314 8.85574L36.2981 16.3877C36.4156 16.83 36.3387 17.236 36.0673 17.6057C35.796 17.9753 35.4306 18.1602 34.9712 18.1602H31.1603L33.1442 33.0159H31.0663L29.9253 24.6025H11.0749L9.93382 33.0159H7.8559Z" fill="#1C1B1F"/>
</g>
</svg>
