<svg width="96" height="96" viewBox="0 0 96 96" fill="none" xmlns="http://www.w3.org/2000/svg">
<mask id="mask0_0_674" style="mask-type:alpha" maskUnits="userSpaceOnUse" x="0" y="0" width="96" height="96">
<rect width="96" height="96" fill="#D9D9D9"/>
</mask>
<g mask="url(#mask0_0_674)">
<path d="M36.2153 84.9231L29.5383 73.5385L16.5153 70.9L17.8306 57.8154L9.38452 48L17.8306 38.2077L16.5153 25.2L29.5383 22.4846L36.2153 11.0769L47.9999 16.2769L59.7845 11.0769L66.5615 22.4846L79.5615 25.2L78.1692 38.2077L86.6153 48L78.1692 57.8154L79.5615 70.9L66.5615 73.5385L59.7845 84.9231L47.9999 79.7231L36.2153 84.9231ZM37.6076 80.8692L47.9999 76.6L58.5384 80.8692L64.7768 71.1L76.0922 68.4077L75.0461 56.7385L82.7614 48L75.0461 39.2154L76.0922 27.4692L64.7768 24.9L58.4922 15.1308L47.9999 19.4L37.4614 15.1308L31.223 24.9L19.9076 27.4692L20.9537 39.2154L13.2384 48L20.9537 56.7385L19.9076 68.4539L31.223 71.1L37.6076 80.8692ZM43.7768 58.9923L63.6307 39.2615L61.2845 37.1615L43.7768 54.6231L34.7384 45.3384L32.3691 47.6846L43.7768 58.9923Z" fill="#00205B"/>
</g>
</svg>
